<svg width="50" height="50" viewBox="0 0 50 50" fill="none" xmlns="http://www.w3.org/2000/svg">
<g clip-path="url(#clip0)">
<path d="M50.0001 27.9675C50.0388 23.7889 48.2151 19.81 45.0243 17.1116C45.136 14.8333 45.1435 7.49997 41.171 1.88414C40.791 1.34395 40.2107 0.978277 39.5594 0.868688C38.9081 0.759099 38.2401 0.914708 37.7043 1.30081C37.0531 1.77321 36.6674 2.5288 36.6668 3.33331V18.505C36.2401 18.7141 35.8068 18.9325 35.3535 19.1716C29.1718 22.395 27.7951 32.0883 27.5493 34.4366C26.7406 34.7769 25.8769 34.9677 25.0001 35C24.1231 34.9667 23.2595 34.7747 22.451 34.4333C22.2051 32.0833 20.8285 22.3916 14.6468 19.1666C14.1935 18.9308 13.7601 18.7125 13.3335 18.5V3.33331C13.3329 2.52813 12.9469 1.77189 12.2951 1.29914C11.7631 0.913163 11.0982 0.757308 10.4501 0.86664C9.79472 0.975048 9.21039 1.34228 8.82845 1.88581C4.85678 7.49997 4.86428 14.8333 4.97595 17.1116C1.78514 19.81 -0.0386096 23.7889 0.000116186 27.9675C0.000116186 31.4816 0.884283 34.325 2.50012 36.3691V42.5C2.4999 43.8722 3.17539 45.1566 4.30618 45.9341C5.43698 46.7115 6.87807 46.8824 8.15928 46.3908C8.91747 47.5975 10.2417 48.3309 11.6668 48.3333C12.3523 48.3343 13.027 48.1624 13.6285 47.8333C14.3896 48.661 15.4557 49.1421 16.58 49.1651C17.7042 49.188 18.7891 48.7509 19.5835 47.955C21.0417 49.4188 23.3594 49.5743 25.0001 48.3183C26.6408 49.5743 28.9585 49.4188 30.4168 47.955C31.2111 48.7509 32.296 49.188 33.4203 49.1651C34.5445 49.1421 35.6106 48.661 36.3718 47.8333C36.9732 48.1624 37.6479 48.3343 38.3335 48.3333C39.7586 48.3309 41.0828 47.5975 41.841 46.3908C43.1222 46.8824 44.5633 46.7115 45.6941 45.9341C46.8248 45.1566 47.5003 43.8722 47.5001 42.5V36.3691C49.116 34.325 50.0001 31.4816 50.0001 27.9675ZM39.2501 38.3333C36.722 38.2918 34.2408 37.6439 32.0151 36.4441C32.3735 33.7825 33.8543 25.7508 38.8985 23.1191C41.5043 21.76 43.1251 20.93 46.1485 20.8466C47.5848 22.9424 48.3472 25.4268 48.3335 27.9675C48.3335 34.555 45.0226 38.3333 39.2501 38.3333ZM38.6785 2.65164C38.851 2.52654 39.0665 2.47582 39.2768 2.51081C39.4929 2.54717 39.6853 2.66876 39.811 2.84831C43.311 7.79081 43.4585 14.255 43.3743 16.6941C42.8117 16.7133 42.2504 16.7612 41.6926 16.8375C41.736 13.9841 41.4326 8.00414 38.4868 3.81664C38.2217 3.44057 38.307 2.92148 38.6785 2.64997V2.65164ZM38.3335 6.97747C39.9843 10.7825 40.0643 15.35 40.0151 17.1941C39.4444 17.3489 38.8829 17.5362 38.3335 17.755V6.97747ZM36.1235 20.6441C36.7143 20.3358 37.2601 20.0608 37.7901 19.805C37.817 19.7942 37.8432 19.7816 37.8685 19.7675C39.7347 18.8244 41.7966 18.3331 43.8876 18.3333C44.2368 18.6198 44.5672 18.9285 44.8768 19.2575C42.1893 19.535 40.4151 20.4466 38.0735 21.6675C32.801 24.4175 31.0251 31.88 30.4601 35.535C29.8985 35.1691 29.4693 34.8483 29.2051 34.6383C29.4301 32.5741 30.7201 23.4633 36.1235 20.6466V20.6441ZM20.7951 34.6408C20.531 34.8508 20.1018 35.1716 19.5393 35.5375C18.9743 31.8825 17.1918 24.4183 11.8726 21.6408C9.57678 20.4433 7.80845 19.535 5.11262 19.2591C5.42419 18.9287 5.75743 18.6194 6.11012 18.3333C8.20111 18.3336 10.2628 18.8249 12.1293 19.7675C12.1543 19.7816 12.1802 19.7942 12.2068 19.805C12.7393 20.055 13.2901 20.3358 13.8735 20.6441C19.2801 23.4633 20.5701 32.5741 20.7951 34.6408ZM9.97678 17.1916C9.92762 15.3458 10.0093 10.775 11.6668 6.97164V17.755C11.1148 17.5349 10.5505 17.3468 9.97678 17.1916ZM10.1885 2.84997C10.314 2.66961 10.5068 2.54737 10.7235 2.51081C10.9334 2.47586 11.1487 2.52659 11.321 2.65164C11.6924 2.9234 11.7766 3.4431 11.5101 3.81831C8.56178 8.00664 8.26012 13.985 8.30012 16.8341C7.74485 16.7582 7.18607 16.7106 6.62595 16.6916C6.54178 14.255 6.69178 7.79081 10.1885 2.84997ZM3.83345 20.8466C6.87428 20.93 8.50012 21.7633 11.1593 23.1475C16.1526 25.7533 17.6293 33.7833 17.9876 36.4441C15.7612 37.6443 13.2791 38.2922 10.7501 38.3333C4.97762 38.3333 1.66678 34.555 1.66678 27.9675C1.64662 25.4286 2.40258 22.9441 3.83345 20.8466ZM43.3335 45C42.8358 45.002 42.3492 44.8526 41.9385 44.5716C41.7237 44.4242 41.4524 44.3856 41.2051 44.4674C40.9578 44.5492 40.7629 44.7419 40.6785 44.9883C40.4156 45.7686 39.7811 46.3666 38.9865 46.5827C38.192 46.7988 37.342 46.6047 36.7201 46.065C36.5325 45.9072 36.285 45.84 36.0434 45.8812C35.8017 45.9225 35.5905 46.068 35.466 46.2791C35.0131 47.0536 34.176 47.5218 33.2791 47.5023C32.3821 47.4827 31.5663 46.9785 31.1476 46.185C30.9882 45.9357 30.7127 45.7849 30.4168 45.7849C30.1209 45.7849 29.8454 45.9357 29.686 46.185C29.3053 46.9086 28.5906 47.3965 27.778 47.4875C26.9654 47.5784 26.1606 47.2607 25.6293 46.6391C25.4665 46.4648 25.2386 46.3658 25.0001 46.3658C24.7616 46.3658 24.5338 46.4648 24.371 46.6391C23.8397 47.2607 23.0348 47.5784 22.2222 47.4875C21.4096 47.3965 20.695 46.9086 20.3143 46.185C20.1549 45.9357 19.8794 45.7849 19.5835 45.7849C19.2875 45.7849 19.012 45.9357 18.8526 46.185C18.434 46.9785 17.6181 47.4827 16.7211 47.5023C15.8242 47.5218 14.9871 47.0536 14.5343 46.2791C14.4096 46.0694 14.1992 45.9248 13.9587 45.8836C13.7182 45.8424 13.4717 45.9087 13.2843 46.065C12.6624 46.6047 11.8124 46.7988 11.0179 46.5827C10.2233 46.3666 9.5888 45.7686 9.32595 44.9883C9.24146 44.7419 9.04662 44.5492 8.79931 44.4674C8.552 44.3856 8.28068 44.4242 8.06595 44.5716C7.65399 44.8534 7.16589 45.0028 6.66678 45C5.28607 45 4.16678 43.8807 4.16678 42.5V38C6.08208 39.3714 8.39559 40.0743 10.7501 40C13.7507 39.9558 16.6902 39.1451 19.2893 37.645C20.1698 37.155 21.01 36.5958 21.8018 35.9725C22.816 36.399 23.9003 36.6343 25.0001 36.6666C26.0989 36.6331 27.1821 36.3969 28.1951 35.97C28.9869 36.5933 29.8271 37.1525 30.7076 37.6425H30.7118C33.3104 39.1433 36.2496 39.9549 39.2501 40C41.6046 40.0743 43.9182 39.3714 45.8335 38V42.5C45.8335 43.163 45.5701 43.7989 45.1012 44.2677C44.6324 44.7366 43.9965 45 43.3335 45Z" fill="white"/>
<path d="M25.0001 39.0441C23.284 38.1331 21.1553 38.7142 20.1401 40.3708C19.9749 40.6185 19.9543 40.9356 20.0862 41.2025C20.2181 41.4695 20.4824 41.6458 20.7796 41.665C21.0767 41.6843 21.3615 41.5435 21.5268 41.2958C21.8257 40.7925 22.3241 40.4395 22.8981 40.3247C23.4722 40.2098 24.068 40.3438 24.5376 40.6933C24.8176 40.8801 25.1826 40.8801 25.4626 40.6933C25.7997 40.4926 26.1733 40.3609 26.5618 40.3058C27.3424 40.2086 28.1023 40.6022 28.4734 41.2958C28.6387 41.5435 28.9235 41.6843 29.2207 41.665C29.5178 41.6458 29.7821 41.4695 29.914 41.2025C30.0459 40.9356 30.0254 40.6185 29.8601 40.3708C28.8447 38.7145 26.7163 38.1335 25.0001 39.0441Z" fill="white"/>
</g>
<defs>
<clipPath id="clip0">
<rect width="50" height="50" fill="white"/>
</clipPath>
</defs>
</svg>
