<svg width="15" height="15" viewBox="0 0 15 15" fill="none" xmlns="http://www.w3.org/2000/svg">
<path d="M13.5001 12.9663L12.6412 3.29448C12.6228 3.07975 12.4419 2.91718 12.2302 2.91718H10.4633C10.4388 1.30368 9.11977 0 7.50014 0C5.88051 0 4.56149 1.30368 4.53695 2.91718H2.77008C2.55535 2.91718 2.37744 3.07975 2.35903 3.29448L1.50014 12.9663C1.50014 12.9785 1.49707 12.9908 1.49707 13.0031C1.49707 14.1043 2.50627 15 3.7486 15H11.2517C12.494 15 13.5032 14.1043 13.5032 13.0031C13.5032 12.9908 13.5032 12.9785 13.5001 12.9663ZM7.50014 0.828221C8.66271 0.828221 9.61057 1.76074 9.63511 2.91718H5.36517C5.38971 1.76074 6.33756 0.828221 7.50014 0.828221ZM11.2517 14.1718H3.7486C2.96946 14.1718 2.33756 13.6564 2.32529 13.0215L3.14738 3.74847H4.53388V5.00613C4.53388 5.2362 4.71793 5.42025 4.94799 5.42025C5.17805 5.42025 5.3621 5.2362 5.3621 5.00613V3.74847H9.63511V5.00613C9.63511 5.2362 9.81916 5.42025 10.0492 5.42025C10.2793 5.42025 10.4633 5.2362 10.4633 5.00613V3.74847H11.8498L12.675 13.0215C12.6627 13.6564 12.0277 14.1718 11.2517 14.1718Z" fill="white"/>
</svg>
