<svg width="13" height="13" viewBox="0 0 13 13" fill="none" xmlns="http://www.w3.org/2000/svg">
<path d="M11.9369 1.59553C11.2645 0.872779 10.3222 0.461546 9.33508 0.460021C8.34712 0.461165 7.40392 0.87218 6.73047 1.59507L6.50095 1.8376L6.27143 1.59507C4.93513 0.156837 2.68589 0.0742414 1.24769 1.41055C1.18396 1.46978 1.12241 1.53131 1.06317 1.59507C-0.354391 3.12408 -0.354391 5.48711 1.06317 7.01613L6.16366 12.3949C6.34012 12.5812 6.63418 12.5892 6.82047 12.4127C6.82657 12.4069 6.8325 12.401 6.83827 12.3949L11.9369 7.01613C13.3544 5.48727 13.3544 3.12438 11.9369 1.59553ZM11.2646 6.37636H11.2641L6.50095 11.4002L1.73733 6.37636C0.654391 5.20805 0.654391 3.40269 1.73733 2.23437C2.72077 1.16848 4.38212 1.10164 5.44801 2.08508C5.49977 2.13283 5.54956 2.18262 5.59731 2.23437L6.16366 2.83187C6.3503 3.01731 6.65163 3.01731 6.83827 2.83187L7.40463 2.23484C8.38806 1.16894 10.0494 1.10211 11.1153 2.08555C11.1671 2.13329 11.2169 2.18309 11.2646 2.23484C12.357 3.405 12.365 5.21365 11.2646 6.37636Z" fill="white"/>
</svg>
