<svg width="188" height="187" viewBox="0 0 188 187" fill="none" xmlns="http://www.w3.org/2000/svg">
<g clip-path="url(#clip0)">
<path d="M104.145 0.364309L105.529 0.510033L103.38 22.8786L101.996 22.7329L100.903 8.34268L99.5551 22.5143L98.1709 22.3686L100.32 0L101.704 0.145724L102.797 14.5359L104.145 0.364309Z" fill="#EA4C89"/>
<path d="M121.12 5.31893L118.278 14.3174L120.209 14.9367L119.772 16.2846L117.841 15.6653L115.182 24.0444L118.133 24.9916L117.696 26.3396L113.434 24.9916L120.209 3.53381L124.471 4.88176L124.034 6.2297L121.12 5.31893Z" fill="#EA4C89"/>
<path d="M147.275 16.2482L133.578 34.2087L132.376 33.48L138.896 20.4013L130.19 32.1321L128.988 31.4035L138.751 11.0386L139.953 11.7672L133.36 25.4652L142.393 13.2609L143.596 13.9895L136.857 27.5782L146.073 15.5196L147.275 16.2482Z" fill="#EA4C89"/>
<path d="M159.732 47.5788L160.57 48.7446L155.398 52.497C154.778 52.9706 154.086 53.0435 153.467 52.8977C152.811 52.752 152.374 52.5334 151.864 51.8048C151.609 51.4405 151.427 51.1126 151.318 50.7483C151.208 50.4204 151.209 50.0925 151.245 49.7647C151.281 49.4368 151.391 49.1818 151.573 48.9268C151.755 48.6353 152.046 48.4532 152.338 48.2346L166.617 37.8517C166.945 37.6332 167.2 37.3781 167.528 37.3417C167.856 37.2688 168.147 37.2324 168.475 37.3053C168.766 37.3781 169.058 37.4874 169.349 37.706C169.641 37.9246 169.932 38.1796 170.187 38.5439C170.697 39.2726 170.77 39.7462 170.697 40.4019C170.624 41.0577 170.333 41.677 169.713 42.1142L164.577 45.8666L163.739 44.7008L168.876 40.9484C169.167 40.7298 169.386 40.4748 169.422 40.1833C169.495 39.8554 169.458 39.5276 169.203 39.1997C168.948 38.8718 168.694 38.7261 168.366 38.7261C168.038 38.6897 167.783 38.7989 167.491 39.0175L153.212 49.4004C152.921 49.6189 152.702 49.8375 152.629 50.1654C152.556 50.4569 152.593 50.7483 152.848 51.0762C153.103 51.4041 153.358 51.5862 153.686 51.6226C154.013 51.6591 154.305 51.5498 154.633 51.3312L159.732 47.5788Z" fill="#EA4C89"/>
<path d="M176.853 54.7557C177.217 54.61 177.545 54.4278 177.837 54.4278C178.165 54.3914 178.456 54.4278 178.747 54.5735C179.039 54.7193 179.294 54.9014 179.512 55.1564C179.804 55.4479 179.986 55.7393 180.168 56.1401C180.532 56.978 180.496 57.4516 180.277 58.0709C180.059 58.6902 179.658 59.2367 178.93 59.5646L162.756 66.6686C162.027 66.9965 161.372 66.9236 160.789 66.6322C160.17 66.3407 159.805 66.0493 159.441 65.2478C159.259 64.8471 159.15 64.4828 159.113 64.1184C159.077 63.7541 159.15 63.4627 159.222 63.1348C159.332 62.8069 159.514 62.5883 159.696 62.3698C159.915 62.1147 160.242 62.0055 160.607 61.8597L176.853 54.7557ZM178.383 58.2895C178.711 58.1438 178.966 57.9252 179.075 57.6337C179.221 57.3423 179.221 57.0144 179.075 56.6137C178.93 56.2129 178.675 56.0672 178.383 55.9579C178.092 55.8486 177.8 55.9215 177.436 56.0672L161.262 63.1348C160.935 63.2805 160.68 63.4627 160.534 63.7541C160.388 64.0456 160.388 64.3006 160.534 64.7013C160.68 65.1021 160.935 65.2842 161.226 65.3935C161.517 65.5028 161.882 65.4664 162.21 65.3207L178.383 58.2895Z" fill="#EA4C89"/>
<path d="M165.27 78.4722L165.889 81.4232L164.505 81.7146L163.63 77.3793L185.632 72.8983L185.924 74.2827L165.27 78.4722Z" fill="#EA4C89"/>
<path d="M166.909 93.2996L166.873 96.3234L165.488 96.287L165.561 91.8424L188.037 92.2067L187.964 93.6275L166.909 93.2996Z" fill="#EA4C89"/>
<path d="M184.722 112.28L175.469 110.313L175.068 112.28L173.684 111.989L174.085 110.021L165.488 108.2L164.832 111.224L163.448 110.932L164.359 106.524L186.324 111.187L185.414 115.595L184.03 115.304L184.722 112.28Z" fill="#EA4C89"/>
<path d="M166.909 127.8L166.326 129.111L160.497 126.488C159.769 126.16 159.368 125.614 159.186 125.031C158.968 124.375 158.931 123.902 159.332 123.1C159.514 122.699 159.733 122.372 159.951 122.08C160.206 121.825 160.461 121.643 160.752 121.534C161.044 121.388 161.335 121.351 161.663 121.388C161.991 121.388 162.282 121.534 162.647 121.716L178.784 128.929C179.148 129.075 179.476 129.221 179.695 129.439C179.913 129.658 180.095 129.913 180.205 130.204C180.277 130.532 180.314 130.824 180.314 131.151C180.277 131.516 180.205 131.88 180.022 132.317C179.658 133.119 179.294 133.447 178.675 133.702C178.055 133.957 177.4 134.029 176.671 133.702L170.843 131.115L171.426 129.803L177.254 132.39C177.582 132.536 177.91 132.572 178.201 132.463C178.529 132.354 178.747 132.171 178.93 131.771C179.112 131.37 179.075 131.115 178.93 130.824C178.82 130.532 178.565 130.35 178.237 130.204L162.137 122.991C161.809 122.845 161.481 122.772 161.19 122.882C160.862 122.954 160.68 123.137 160.497 123.537C160.315 123.938 160.315 124.23 160.461 124.521C160.607 124.812 160.862 125.031 161.19 125.177L166.909 127.8Z" fill="#EA4C89"/>
<path d="M167.965 151.881L166.836 151.043L168.002 149.476L151.1 136.98L151.937 135.851L168.84 148.347L170.005 146.78L171.134 147.618L167.965 151.881Z" fill="#EA4C89"/>
<path d="M142.903 146.088L158.13 162.628L157.11 163.575L141.883 147.035L142.903 146.088Z" fill="#EA4C89"/>
<path d="M144.324 170.46C144.542 170.788 144.761 171.08 144.761 171.408C144.834 171.735 144.834 172.027 144.761 172.355C144.652 172.646 144.506 172.938 144.287 173.193C144.069 173.521 143.777 173.739 143.377 173.994C142.612 174.468 142.138 174.504 141.482 174.395C140.827 174.249 140.244 173.958 139.843 173.266L130.554 158.22C130.154 157.564 130.117 156.872 130.299 156.252C130.481 155.597 130.736 155.196 131.501 154.722C131.866 154.504 132.23 154.358 132.594 154.249C132.922 154.176 133.25 154.176 133.578 154.249C133.906 154.321 134.161 154.431 134.416 154.613C134.707 154.795 134.853 155.087 135.071 155.451L144.324 170.46ZM141.045 172.501C141.227 172.828 141.482 173.047 141.774 173.12C142.102 173.229 142.393 173.193 142.757 172.974C143.122 172.756 143.267 172.501 143.304 172.173C143.377 171.881 143.267 171.59 143.085 171.262L133.796 156.252C133.614 155.924 133.396 155.706 133.068 155.597C132.776 155.487 132.485 155.524 132.121 155.742C131.756 155.961 131.574 156.216 131.538 156.544C131.465 156.872 131.574 157.2 131.756 157.491L141.045 172.501Z" fill="#EA4C89"/>
<path d="M123.852 183.065L122.54 183.539L115.109 162.336L116.421 161.863L123.451 174.468L118.752 161.061L120.063 160.588L127.495 181.79L126.183 182.264L119.153 169.659L123.852 183.065Z" fill="#EA4C89"/>
<path d="M76.5332 186.344L75.1489 186.089L79.0102 163.939L80.3944 164.194V178.621L82.835 164.595L84.2193 164.85L80.358 187L78.9738 186.745V172.318L76.5332 186.344Z" fill="#EA4C89"/>
<path d="M59.9952 180.078L63.5287 171.298L61.6709 170.533L62.1809 169.222L64.0386 169.987L67.3171 161.863L64.4393 160.697L64.9493 159.385L69.102 161.061L60.6874 181.9L56.5347 180.224L57.0811 178.912L59.9952 180.078Z" fill="#EA4C89"/>
<path d="M34.7881 167.182L49.8325 150.314L50.9617 151.152L43.4577 163.721L53.038 152.682L54.1673 153.52L42.8749 173.047L41.7457 172.209L49.3589 159.058L39.4143 170.533L38.2851 169.695L46.044 156.653L35.9173 167.983L34.7881 167.182Z" fill="#EA4C89"/>
<path d="M24.7338 134.977L23.9689 133.774L29.3965 130.423C30.0522 130.022 30.7443 129.986 31.3636 130.168C32.0192 130.35 32.4199 130.605 32.8935 131.37C33.1121 131.734 33.2578 132.099 33.367 132.463C33.4399 132.791 33.4399 133.119 33.367 133.447C33.2942 133.774 33.1849 134.029 33.0028 134.284C32.8206 134.576 32.5292 134.722 32.165 134.94L17.1206 144.194C16.7927 144.412 16.5013 144.631 16.1735 144.631C15.8456 144.704 15.5542 144.704 15.2264 144.631C14.935 144.522 14.6435 144.376 14.3886 144.157C14.0971 143.902 13.8421 143.647 13.5872 143.246C13.1136 142.481 13.0772 142.008 13.1865 141.352C13.3322 140.696 13.66 140.113 14.3157 139.713L19.7433 136.361L20.5083 137.563L15.0807 140.915C14.7528 141.097 14.5343 141.352 14.4614 141.643C14.3521 141.971 14.3886 142.263 14.6071 142.627C14.8257 142.991 15.0807 143.137 15.4085 143.174C15.6999 143.246 15.9913 143.137 16.3192 142.955L31.3271 133.702C31.655 133.519 31.8735 133.301 31.9828 132.973C32.0921 132.681 32.0557 132.39 31.8371 132.026C31.6186 131.661 31.3636 131.479 31.0357 131.443C30.7079 131.406 30.38 131.479 30.0886 131.661L24.7338 134.977Z" fill="#EA4C89"/>
<path d="M8.23248 126.488C7.86821 126.634 7.54037 126.78 7.21252 126.707C6.88468 126.707 6.59326 126.67 6.30185 126.488C6.04686 126.306 5.79187 126.124 5.57331 125.832C5.31832 125.541 5.13618 125.213 4.99047 124.776C4.69906 123.938 4.77191 123.464 5.0269 122.845C5.28189 122.262 5.75544 121.752 6.48398 121.461L23.1676 115.668C23.8961 115.413 24.5882 115.523 25.1346 115.85C25.7175 116.178 26.0817 116.506 26.3732 117.344C26.5189 117.781 26.5917 118.146 26.5917 118.51C26.5917 118.874 26.5189 119.166 26.4096 119.457C26.2639 119.785 26.0817 119.967 25.8632 120.186C25.6082 120.404 25.2803 120.514 24.9161 120.623L8.23248 126.488ZM6.95753 122.882C6.62969 122.991 6.33827 123.173 6.22899 123.464C6.04686 123.756 6.01043 124.084 6.15614 124.485C6.30185 124.885 6.52041 125.067 6.81183 125.177C7.10324 125.322 7.39466 125.25 7.75893 125.14L24.4061 119.311C24.7339 119.202 25.0254 119.02 25.1711 118.728C25.3532 118.473 25.3532 118.182 25.2439 117.781C25.0982 117.38 24.9161 117.162 24.5882 117.016C24.2604 116.87 23.969 116.907 23.6047 117.016L6.95753 122.882Z" fill="#EA4C89"/>
<path d="M21.6015 103.755L21.2372 100.732L22.6215 100.549L23.1679 104.958L0.874518 107.726L0.692383 106.342L21.6015 103.755Z" fill="#EA4C89"/>
<path d="M21.0913 88.7822L21.3462 85.7584L22.7305 85.8677L22.3662 90.2759L0 88.5272L0.109281 87.1428L21.0913 88.7822Z" fill="#EA4C89"/>
<path d="M4.80856 68.563L13.8789 71.2225L14.4617 69.2916L15.8095 69.6924L15.2267 71.6232L23.6413 74.1005L24.5156 71.1496L25.8634 71.5503L24.5884 75.8492L3.06006 69.4738L4.33501 65.1749L5.71923 65.5757L4.80856 68.563Z" fill="#EA4C89"/>
<path d="M23.7869 54.4643L24.479 53.1892L30.0887 56.2494C30.7808 56.6137 31.1451 57.1966 31.2908 57.8159C31.4365 58.4717 31.4365 58.9453 30.9994 59.7467C30.7808 60.1475 30.5623 60.4389 30.2709 60.694C30.0159 60.949 29.7609 61.0947 29.433 61.204C29.1052 61.3133 28.8138 61.3133 28.5224 61.2768C28.1945 61.2404 27.9031 61.0583 27.5388 60.8761L12.0209 52.4241C11.6931 52.242 11.3288 52.0963 11.1467 51.8412C10.9281 51.5862 10.7824 51.3676 10.7095 51.0398C10.6731 50.7119 10.6367 50.4204 10.7095 50.0561C10.7824 49.6918 10.8917 49.3275 11.1102 48.9268C11.5474 48.1253 11.9481 47.8703 12.5673 47.6517C13.1866 47.4331 13.8787 47.4331 14.5708 47.7974L20.1806 50.8212L19.4885 52.0963L13.8787 49.0725C13.5509 48.8903 13.2594 48.8175 12.9316 48.9268C12.6037 48.9996 12.3488 49.1818 12.1302 49.5461C11.9116 49.9104 11.9481 50.2018 12.0573 50.4933C12.1302 50.7847 12.3852 51.0033 12.713 51.1855L28.231 59.601C28.5588 59.7832 28.8502 59.856 29.1781 59.7832C29.5059 59.7468 29.7245 59.5646 29.9066 59.2003C30.1252 58.836 30.1252 58.5445 30.0159 58.2167C29.9066 57.8888 29.688 57.6702 29.3602 57.488L23.7869 54.4643Z" fill="#EA4C89"/>
<path d="M24.5519 30.3834L25.6083 31.2942L24.3333 32.7514L40.2519 46.5223L39.3413 47.5788L23.4226 33.8079L22.1477 35.2651L21.0913 34.3544L24.5519 30.3834Z" fill="#EA4C89"/>
<path d="M49.1036 38.0703L35.1885 20.4013L36.2813 19.527L50.1964 37.1596L49.1036 38.0703Z" fill="#EA4C89"/>
<path d="M49.5408 13.6252C49.3587 13.2609 49.1766 12.9694 49.1766 12.6415C49.1401 12.3136 49.1401 12.0222 49.2494 11.6943C49.3951 11.4029 49.5408 11.1479 49.7958 10.8928C50.0508 10.6014 50.3422 10.3828 50.7429 10.1642C51.5443 9.76348 52.0179 9.76348 52.6736 9.90921C53.2928 10.0914 53.8757 10.4557 54.2399 11.1479L62.3632 26.8496C62.7274 27.5418 62.691 28.234 62.4725 28.8169C62.2175 29.4362 61.9625 29.8369 61.1611 30.2377C60.7604 30.4563 60.3961 30.5655 60.0318 30.6384C59.6676 30.7113 59.3762 30.6748 59.0483 30.5655C58.7205 30.4563 58.4655 30.3105 58.2469 30.1284C57.9919 29.9098 57.8462 29.6183 57.6641 29.254L49.5408 13.6252ZM52.965 11.8765C52.7828 11.5486 52.5643 11.33 52.2729 11.2207C51.945 11.1114 51.6536 11.1114 51.2529 11.2936C50.8886 11.4757 50.7065 11.7308 50.6701 12.0586C50.5608 12.3501 50.6701 12.678 50.8158 12.9694L58.9026 28.6347C59.0847 28.9626 59.2669 29.2176 59.5583 29.3269C59.8497 29.4726 60.1411 29.4362 60.5054 29.254C60.8697 29.0719 61.0882 28.8169 61.1611 28.489C61.2339 28.1611 61.1611 27.8332 61.0154 27.5418L52.965 11.8765Z" fill="#EA4C89"/>
<path d="M70.9234 2.65944L72.2712 2.29514L78.0267 24.008L76.6789 24.3723L70.632 11.2571L74.2747 24.9916L72.9269 25.3559L67.1714 3.64308L68.5192 3.27877L74.5661 16.3939L70.9234 2.65944Z" fill="#EA4C89"/>
</g>
<defs>
<clipPath id="clip0">
<rect width="188" height="187" fill="white"/>
</clipPath>
</defs>
</svg>
