<svg width="9" height="9" viewBox="0 0 9 9" fill="none" xmlns="http://www.w3.org/2000/svg">
<path d="M5.20013 5.1999L5.20013 7.82493C5.20013 8.11497 4.96502 8.35008 4.6752 8.34986L4.32525 8.34986C4.03512 8.34986 3.80001 8.11474 3.80028 7.82489L3.80028 5.19995L1.17503 5.20017C0.884986 5.20017 0.649874 4.96506 0.6501 4.67525L0.649828 4.32503C0.649874 4.03494 0.884986 3.79983 1.1748 3.80005L3.80028 3.80005L3.80028 1.17511C3.80028 0.884984 4.0354 0.649871 4.32525 0.650143L4.6752 0.650143C4.96524 0.650143 5.20036 0.885256 5.20013 1.17507L5.20013 3.8001L7.82512 3.80006C8.1152 3.8001 8.35031 4.03521 8.35009 4.32503V4.67497C8.35004 4.96506 8.11493 5.20017 7.82512 5.19994L5.20013 5.1999Z" fill="black"/>
</svg>
