<svg width="14" height="14" viewBox="0 0 14 14" fill="none" xmlns="http://www.w3.org/2000/svg">
<path d="M2.89021 13.415L2.87404 13.4286L2.86616 13.4365C2.77236 13.5022 2.6449 13.5198 2.50808 13.4609C2.40591 13.4105 2.32617 13.2891 2.32617 13.1546V1.35266C2.32617 0.884838 2.71101 0.5 3.17883 0.5H10.8213C11.2892 0.5 11.674 0.884838 11.674 1.35266V13.1377C11.674 13.2742 11.592 13.3971 11.4877 13.4461L11.4697 13.4546L11.4525 13.4644C11.4328 13.4757 11.4098 13.4851 11.3857 13.4915C11.3614 13.498 11.3413 13.5 11.3286 13.5C11.2686 13.5 11.1977 13.4794 11.1317 13.4342L11.1261 13.4286L11.11 13.415L7.32252 10.2193L7.00008 9.94725L6.67765 10.2193L2.89021 13.415Z" fill="white" stroke="black"/>
</svg>
