<svg width="15" height="15" viewBox="0 0 15 15" fill="none" xmlns="http://www.w3.org/2000/svg">
<path d="M7.06137 3.44614L7.49999 4.24773L7.93862 3.44615C8.16695 3.0289 8.54675 2.47166 9.10353 2.04106C9.67576 1.59851 10.3149 1.37891 11.0156 1.37891C12.9734 1.37891 14.5 2.97394 14.5 5.20061C14.5 6.37767 14.0343 7.38917 13.1422 8.46572C12.2373 9.55757 10.9328 10.6714 9.30391 12.0595L9.3039 12.0595L9.30343 12.0599C8.7599 12.5231 8.14246 13.0493 7.50002 13.6109C6.85797 13.0497 6.24082 12.5238 5.69781 12.061L5.69646 12.0598L5.69644 12.0598C4.06734 10.6715 2.76276 9.55764 1.85787 8.46576C0.965655 7.38916 0.5 6.37766 0.5 5.20061C0.5 2.97394 2.02655 1.37891 3.98438 1.37891C4.68506 1.37891 5.32424 1.59851 5.89647 2.04106L6.20235 1.64555L5.89647 2.04106C6.45325 2.47167 6.83305 3.02888 7.06137 3.44614ZM7.52084 13.6291L7.52059 13.6289L7.52084 13.6291Z" stroke="black"/>
</svg>
