<svg width="50" height="50" viewBox="0 0 50 50" fill="none" xmlns="http://www.w3.org/2000/svg">
<g clip-path="url(#clip0)">
<path d="M50.0006 27.9675C50.0393 23.7889 48.2156 19.81 45.0248 17.1116C45.1364 14.8333 45.1439 7.49997 41.1714 1.88414C40.7915 1.34395 40.2112 0.978277 39.5599 0.868688C38.9086 0.759099 38.2406 0.914708 37.7048 1.30081C37.0536 1.77321 36.6679 2.5288 36.6673 3.33331V18.505C36.2406 18.7141 35.8073 18.9325 35.3539 19.1716C29.1723 22.395 27.7956 32.0883 27.5498 34.4366C26.7411 34.7769 25.8774 34.9677 25.0006 35C24.1236 34.9667 23.2599 34.7747 22.4514 34.4333C22.2056 32.0833 20.8289 22.3916 14.6473 19.1666C14.1939 18.9308 13.7606 18.7125 13.3339 18.5V3.33331C13.3334 2.52813 12.9474 1.77189 12.2956 1.29914C11.7636 0.913163 11.0987 0.757308 10.4506 0.86664C9.79521 0.975048 9.21088 1.34228 8.82894 1.88581C4.85727 7.49997 4.86477 14.8333 4.97644 17.1116C1.78563 19.81 -0.0381214 23.7889 0.000604468 27.9675C0.000604468 31.4816 0.884771 34.325 2.5006 36.3691V42.5C2.50039 43.8722 3.17588 45.1566 4.30667 45.9341C5.43746 46.7115 6.87856 46.8824 8.15977 46.3908C8.91796 47.5975 10.2422 48.3309 11.6673 48.3333C12.3528 48.3343 13.0275 48.1624 13.6289 47.8333C14.3901 48.661 15.4562 49.1421 16.5805 49.1651C17.7047 49.188 18.7896 48.7509 19.5839 47.955C21.0422 49.4188 23.3599 49.5743 25.0006 48.3183C26.6413 49.5743 28.959 49.4188 30.4173 47.955C31.2116 48.7509 32.2965 49.188 33.4207 49.1651C34.545 49.1421 35.6111 48.661 36.3723 47.8333C36.9737 48.1624 37.6484 48.3343 38.3339 48.3333C39.759 48.3309 41.0833 47.5975 41.8414 46.3908C43.1227 46.8824 44.5638 46.7115 45.6945 45.9341C46.8253 45.1566 47.5008 43.8722 47.5006 42.5V36.3691C49.1164 34.325 50.0006 31.4816 50.0006 27.9675ZM39.2506 38.3333C36.7225 38.2918 34.2413 37.6439 32.0156 36.4441C32.3739 33.7825 33.8548 25.7508 38.8989 23.1191C41.5048 21.76 43.1256 20.93 46.1489 20.8466C47.5853 22.9424 48.3476 25.4268 48.3339 27.9675C48.3339 34.555 45.0231 38.3333 39.2506 38.3333ZM38.6789 2.65164C38.8515 2.52654 39.067 2.47582 39.2773 2.51081C39.4934 2.54717 39.6858 2.66876 39.8114 2.84831C43.3114 7.79081 43.4589 14.255 43.3748 16.6941C42.8121 16.7133 42.2509 16.7612 41.6931 16.8375C41.7364 13.9841 41.4331 8.00414 38.4873 3.81664C38.2222 3.44057 38.3075 2.92148 38.6789 2.64997V2.65164ZM38.3339 6.97747C39.9848 10.7825 40.0648 15.35 40.0156 17.1941C39.4448 17.3489 38.8834 17.5362 38.3339 17.755V6.97747ZM36.1239 20.6441C36.7148 20.3358 37.2606 20.0608 37.7906 19.805C37.8175 19.7942 37.8437 19.7816 37.8689 19.7675C39.7352 18.8244 41.7971 18.3331 43.8881 18.3333C44.2373 18.6198 44.5677 18.9285 44.8773 19.2575C42.1898 19.535 40.4156 20.4466 38.0739 21.6675C32.8014 24.4175 31.0256 31.88 30.4606 35.535C29.8989 35.1691 29.4698 34.8483 29.2056 34.6383C29.4306 32.5741 30.7206 23.4633 36.1239 20.6466V20.6441ZM20.7956 34.6408C20.5314 34.8508 20.1023 35.1716 19.5398 35.5375C18.9748 31.8825 17.1923 24.4183 11.8731 21.6408C9.57727 20.4433 7.80894 19.535 5.11311 19.2591C5.42468 18.9287 5.75792 18.6194 6.1106 18.3333C8.20159 18.3336 10.2633 18.8249 12.1298 19.7675C12.1548 19.7816 12.1807 19.7942 12.2073 19.805C12.7398 20.055 13.2906 20.3358 13.8739 20.6441C19.2806 23.4633 20.5706 32.5741 20.7956 34.6408ZM9.97727 17.1916C9.92811 15.3458 10.0098 10.775 11.6673 6.97164V17.755C11.1152 17.5349 10.551 17.3468 9.97727 17.1916ZM10.1889 2.84997C10.3144 2.66961 10.5073 2.54737 10.7239 2.51081C10.9339 2.47586 11.1492 2.52659 11.3214 2.65164C11.6929 2.9234 11.7771 3.4431 11.5106 3.81831C8.56227 8.00664 8.26061 13.985 8.30061 16.8341C7.74534 16.7582 7.18656 16.7106 6.62644 16.6916C6.54227 14.255 6.69227 7.79081 10.1889 2.84997ZM3.83394 20.8466C6.87477 20.93 8.50061 21.7633 11.1598 23.1475C16.1531 25.7533 17.6298 33.7833 17.9881 36.4441C15.7617 37.6443 13.2796 38.2922 10.7506 38.3333C4.97811 38.3333 1.66727 34.555 1.66727 27.9675C1.64711 25.4286 2.40307 22.9441 3.83394 20.8466ZM43.3339 45C42.8363 45.002 42.3497 44.8526 41.9389 44.5716C41.7242 44.4242 41.4529 44.3856 41.2056 44.4674C40.9583 44.5492 40.7634 44.7419 40.6789 44.9883C40.4161 45.7686 39.7816 46.3666 38.987 46.5827C38.1925 46.7988 37.3425 46.6047 36.7206 46.065C36.533 45.9072 36.2855 45.84 36.0439 45.8812C35.8022 45.9225 35.591 46.068 35.4664 46.2791C35.0136 47.0536 34.1765 47.5218 33.2796 47.5023C32.3826 47.4827 31.5668 46.9785 31.1481 46.185C30.9887 45.9357 30.7132 45.7849 30.4173 45.7849C30.1214 45.7849 29.8459 45.9357 29.6864 46.185C29.3058 46.9086 28.5911 47.3965 27.7785 47.4875C26.9659 47.5784 26.1611 47.2607 25.6298 46.6391C25.467 46.4648 25.2391 46.3658 25.0006 46.3658C24.7621 46.3658 24.5342 46.4648 24.3714 46.6391C23.8402 47.2607 23.0353 47.5784 22.2227 47.4875C21.4101 47.3965 20.6955 46.9086 20.3148 46.185C20.1553 45.9357 19.8799 45.7849 19.5839 45.7849C19.288 45.7849 19.0125 45.9357 18.8531 46.185C18.4345 46.9785 17.6186 47.4827 16.7216 47.5023C15.8247 47.5218 14.9876 47.0536 14.5348 46.2791C14.4101 46.0694 14.1997 45.9248 13.9592 45.8836C13.7187 45.8424 13.4722 45.9087 13.2848 46.065C12.6629 46.6047 11.8129 46.7988 11.0184 46.5827C10.2238 46.3666 9.58928 45.7686 9.32644 44.9883C9.24195 44.7419 9.04711 44.5492 8.7998 44.4674C8.55249 44.3856 8.28117 44.4242 8.06644 44.5716C7.65448 44.8534 7.16637 45.0028 6.66727 45C5.28656 45 4.16727 43.8807 4.16727 42.5V38C6.08257 39.3714 8.39608 40.0743 10.7506 40C13.7512 39.9558 16.6907 39.1451 19.2898 37.645C20.1703 37.155 21.0105 36.5958 21.8023 35.9725C22.8165 36.399 23.9008 36.6343 25.0006 36.6666C26.0994 36.6331 27.1826 36.3969 28.1956 35.97C28.9874 36.5933 29.8275 37.1525 30.7081 37.6425H30.7123C33.3109 39.1433 36.2501 39.9549 39.2506 40C41.6051 40.0743 43.9186 39.3714 45.8339 38V42.5C45.8339 43.163 45.5705 43.7989 45.1017 44.2677C44.6329 44.7366 43.997 45 43.3339 45Z" fill="#696969"/>
<path d="M25.0001 39.0441C23.284 38.1331 21.1553 38.7142 20.1401 40.3708C19.9749 40.6185 19.9543 40.9356 20.0862 41.2025C20.2181 41.4695 20.4824 41.6458 20.7796 41.665C21.0767 41.6843 21.3615 41.5435 21.5268 41.2958C21.8257 40.7925 22.3241 40.4395 22.8981 40.3247C23.4722 40.2098 24.068 40.3438 24.5376 40.6933C24.8176 40.8801 25.1826 40.8801 25.4626 40.6933C25.7997 40.4926 26.1733 40.3609 26.5618 40.3058C27.3424 40.2086 28.1023 40.6022 28.4734 41.2958C28.6387 41.5435 28.9235 41.6843 29.2207 41.665C29.5178 41.6458 29.7821 41.4695 29.914 41.2025C30.0459 40.9356 30.0254 40.6185 29.8601 40.3708C28.8447 38.7145 26.7163 38.1335 25.0001 39.0441Z" fill="#696969"/>
</g>
<defs>
<clipPath id="clip0">
<rect width="50" height="50" fill="white"/>
</clipPath>
</defs>
</svg>
