<svg width="50" height="50" viewBox="0 0 50 50" fill="none" xmlns="http://www.w3.org/2000/svg">
<g clip-path="url(#clip0)">
<path d="M41.666 0.833333C41.666 0.373096 41.2929 0 40.8327 0C40.3725 0 39.9994 0.373096 39.9994 0.833333C40.0525 3.67901 39.581 6.51012 38.6085 9.185C36.2852 9.2721 34.0085 9.86295 31.936 10.9167C29.7376 12.0837 28.0448 14.018 27.1794 16.3517C26.4764 16.582 25.7388 16.6886 24.9994 16.6667C24.2598 16.6878 23.5222 16.5804 22.8194 16.3492C21.9534 14.0164 20.2606 12.0831 18.0627 10.9167C15.9896 9.86334 13.7123 9.27332 11.3885 9.1875C10.4125 6.51274 9.94143 3.68003 9.99935 0.833333C9.99935 0.373096 9.62626 0 9.16602 0C8.70578 0 8.33269 0.373096 8.33269 0.833333C8.27262 3.88583 8.78129 6.92283 9.83269 9.78917C7.80145 11.8412 6.66326 14.6127 6.66602 17.5C6.66602 22.7958 9.71602 25.8333 15.0352 25.8333C18.3184 25.7216 21.4582 24.4608 23.9069 22.2708L23.9119 22.2633L23.9194 22.2583C24.2111 21.9562 24.5877 21.7499 24.9994 21.6667C25.4099 21.7494 25.7856 21.9549 26.0769 22.2558L26.086 22.2617L26.0919 22.2708C28.5405 24.4608 31.6803 25.7216 34.9635 25.8333C40.2827 25.8333 43.3327 22.7958 43.3327 17.5C43.3354 14.6127 42.1973 11.8412 40.166 9.78917C41.2174 6.92283 41.7261 3.88583 41.666 0.833333ZM15.0352 24.1667C10.6502 24.1667 8.33269 21.8608 8.33269 17.5C8.34453 14.9912 9.35828 12.591 11.1485 10.8333C13.3086 10.8818 15.429 11.4234 17.3477 12.4167C21.2152 14.25 22.2394 19.7717 22.4527 21.3242C20.3622 23.0652 17.7538 24.0647 15.0352 24.1667ZM23.9694 20.2433C23.8437 19.5617 23.6824 18.8872 23.486 18.2225C23.9868 18.2986 24.4928 18.3356 24.9994 18.3333C25.5058 18.3356 26.0118 18.2992 26.5127 18.2242C26.3162 18.8883 26.1549 19.5623 26.0294 20.2433C25.381 19.9189 24.6177 19.9189 23.9694 20.2433ZM34.9635 24.1667C32.2464 24.0598 29.6401 23.0614 27.5469 21.3258C27.761 19.7717 28.786 14.255 32.6519 12.4192C34.571 11.425 36.6919 10.8826 38.8527 10.8333C40.6488 12.5868 41.6629 14.9899 41.666 17.5C41.666 21.8608 39.3485 24.1667 34.9635 24.1667Z" fill="#696969"/>
<path d="M39.1667 30H10.8333C10.5408 30.0001 10.2698 30.1534 10.1192 30.4042C10.0125 30.5833 7.5 34.8192 7.5 39.1667C7.50003 39.399 7.59699 39.6207 7.7675 39.7784C7.93932 39.934 8.16703 40.0131 8.39833 39.9975C8.41167 39.9975 8.78417 39.9717 9.38 39.9859C10.1133 42.845 12.7725 44.4026 15.4633 45.7459C16.7972 46.406 18.0933 47.1396 19.3458 47.9434C19.9749 48.3572 20.6253 48.7377 21.2942 49.0834C22.4543 49.6377 23.7152 49.9496 25 50.0001C26.2847 49.9496 27.5457 49.6377 28.7058 49.0834C29.3755 48.7391 30.0267 48.36 30.6567 47.9476C31.9092 47.1438 33.2053 46.4102 34.5392 45.7501C37.2275 44.4051 39.8858 42.85 40.6225 39.9909C41.2192 39.9767 41.5925 40.0009 41.6058 40.0017C41.8371 40.0176 42.0648 39.9381 42.2358 39.7817C42.406 39.6226 42.5018 39.3996 42.5 39.1667C42.5 34.8192 39.9875 30.5833 39.8808 30.4042C39.7302 30.1534 39.4592 30.0001 39.1667 30ZM16.2058 44.2501C13.6017 42.9475 11.8842 41.7867 11.195 40.1267C13.2847 40.3629 15.2811 41.1218 17 42.3334C18.3911 43.4278 19.4809 44.8583 20.1667 46.4901C18.8884 45.6727 17.5661 44.9262 16.2058 44.2542V44.2501ZM33.7942 44.2501C32.4339 44.9249 31.1116 45.6738 29.8333 46.4934C30.5178 44.8599 31.6077 43.4281 33 42.3334C34.7194 41.1252 36.7151 40.3689 38.8033 40.1342C38.1133 41.7925 36.3967 42.9525 33.7942 44.2542V44.2501ZM32 41C29.8572 42.72 28.3224 45.0818 27.6208 47.7384C26.791 48.0954 25.9027 48.2971 25 48.3334C24.0973 48.2971 23.209 48.0954 22.3792 47.7384C21.6776 45.0818 20.1428 42.72 18 41C15.4114 39.226 12.3414 38.2878 9.20333 38.3117C9.31086 37.1844 9.54769 36.0732 9.90917 35H20C20.4602 35 20.8333 34.6269 20.8333 34.1667C20.8333 33.7064 20.4602 33.3333 20 33.3333H10.5325C10.8392 32.61 11.1325 32.025 11.3233 31.6667H38.6767C38.8675 32.025 39.1608 32.61 39.4675 33.3333H30C29.5398 33.3333 29.1667 33.7064 29.1667 34.1667C29.1667 34.6269 29.5398 35 30 35H40.0908C40.4523 36.0732 40.6891 37.1844 40.7967 38.3117C37.6586 38.2876 34.5885 39.2258 32 41Z" fill="#696969"/>
<path d="M26.6666 33.3332C26.09 33.3203 25.5187 33.4451 25 33.6973C24.4813 33.4451 23.9099 33.3203 23.3333 33.3332C22.8731 33.3332 22.5 33.7063 22.5 34.1665C22.5 34.6267 22.8731 34.9998 23.3333 34.9998C23.622 35.0007 23.9084 35.0511 24.18 35.149C24.2518 35.5455 24.597 35.8338 25 35.8338C25.403 35.8338 25.7482 35.5455 25.82 35.149C26.0914 35.0505 26.3779 35.0001 26.6666 34.9998C27.1269 34.9998 27.5 34.6267 27.5 34.1665C27.5 33.7063 27.1269 33.3332 26.6666 33.3332Z" fill="#696969"/>
</g>
<defs>
<clipPath id="clip0">
<rect width="50" height="50" fill="white"/>
</clipPath>
</defs>
</svg>
