<svg width="50" height="50" viewBox="0 0 50 50" fill="none" xmlns="http://www.w3.org/2000/svg">
<g clip-path="url(#clip0)">
<path d="M41.6665 0.833333C41.6665 0.373096 41.2934 0 40.8332 0C40.3729 0 39.9998 0.373096 39.9998 0.833333C40.053 3.67901 39.5815 6.51012 38.609 9.185C36.2857 9.2721 34.009 9.86295 31.9365 10.9167C29.7381 12.0837 28.0453 14.018 27.1798 16.3517C26.4769 16.582 25.7393 16.6886 24.9998 16.6667C24.2603 16.6878 23.5227 16.5804 22.8198 16.3492C21.9539 14.0164 20.2611 12.0831 18.0632 10.9167C15.9901 9.86334 13.7128 9.27332 11.389 9.1875C10.413 6.51274 9.94192 3.68003 9.99984 0.833333C9.99984 0.373096 9.62675 0 9.16651 0C8.70627 0 8.33318 0.373096 8.33318 0.833333C8.27311 3.88583 8.78178 6.92283 9.83318 9.78917C7.80194 11.8412 6.66375 14.6127 6.66651 17.5C6.66651 22.7958 9.71651 25.8333 15.0357 25.8333C18.3189 25.7216 21.4587 24.4608 23.9073 22.2708L23.9123 22.2633L23.9198 22.2583C24.2115 21.9562 24.5882 21.7499 24.9998 21.6667C25.4104 21.7494 25.7861 21.9549 26.0773 22.2558L26.0865 22.2617L26.0923 22.2708C28.541 24.4608 31.6808 25.7216 34.964 25.8333C40.2832 25.8333 43.3332 22.7958 43.3332 17.5C43.3359 14.6127 42.1978 11.8412 40.1665 9.78917C41.2179 6.92283 41.7266 3.88583 41.6665 0.833333ZM15.0357 24.1667C10.6507 24.1667 8.33318 21.8608 8.33318 17.5C8.34502 14.9912 9.35877 12.591 11.149 10.8333C13.3091 10.8818 15.4294 11.4234 17.3482 12.4167C21.2157 14.25 22.2398 19.7717 22.4532 21.3242C20.3626 23.0652 17.7543 24.0647 15.0357 24.1667ZM23.9698 20.2433C23.8442 19.5617 23.6829 18.8872 23.4865 18.2225C23.9873 18.2986 24.4933 18.3356 24.9998 18.3333C25.5063 18.3356 26.0123 18.2992 26.5132 18.2242C26.3167 18.8883 26.1554 19.5623 26.0298 20.2433C25.3815 19.9189 24.6182 19.9189 23.9698 20.2433ZM34.964 24.1667C32.2469 24.0598 29.6406 23.0614 27.5473 21.3258C27.7615 19.7717 28.7865 14.255 32.6523 12.4192C34.5715 11.425 36.6924 10.8826 38.8532 10.8333C40.6493 12.5868 41.6634 14.9899 41.6665 17.5C41.6665 21.8608 39.349 24.1667 34.964 24.1667Z" fill="white"/>
<path d="M39.1667 30H10.8333C10.5408 30.0001 10.2698 30.1534 10.1192 30.4042C10.0125 30.5833 7.5 34.8192 7.5 39.1667C7.50003 39.399 7.59699 39.6207 7.7675 39.7784C7.93932 39.934 8.16703 40.0131 8.39833 39.9975C8.41167 39.9975 8.78417 39.9717 9.38 39.9859C10.1133 42.845 12.7725 44.4026 15.4633 45.7459C16.7972 46.406 18.0933 47.1396 19.3458 47.9434C19.9749 48.3572 20.6253 48.7377 21.2942 49.0834C22.4543 49.6377 23.7152 49.9496 25 50.0001C26.2847 49.9496 27.5457 49.6377 28.7058 49.0834C29.3755 48.7391 30.0267 48.36 30.6567 47.9476C31.9092 47.1438 33.2053 46.4102 34.5392 45.7501C37.2275 44.4051 39.8858 42.85 40.6225 39.9909C41.2192 39.9767 41.5925 40.0009 41.6058 40.0017C41.8371 40.0176 42.0648 39.9381 42.2358 39.7817C42.406 39.6226 42.5018 39.3996 42.5 39.1667C42.5 34.8192 39.9875 30.5833 39.8808 30.4042C39.7302 30.1534 39.4592 30.0001 39.1667 30ZM16.2058 44.2501C13.6017 42.9475 11.8842 41.7867 11.195 40.1267C13.2847 40.3629 15.2811 41.1218 17 42.3334C18.3911 43.4278 19.4809 44.8583 20.1667 46.4901C18.8884 45.6727 17.5661 44.9262 16.2058 44.2542V44.2501ZM33.7942 44.2501C32.4339 44.9249 31.1116 45.6738 29.8333 46.4934C30.5178 44.8599 31.6077 43.4281 33 42.3334C34.7194 41.1252 36.7151 40.3689 38.8033 40.1342C38.1133 41.7925 36.3967 42.9525 33.7942 44.2542V44.2501ZM32 41C29.8572 42.72 28.3224 45.0818 27.6208 47.7384C26.791 48.0954 25.9027 48.2971 25 48.3334C24.0973 48.2971 23.209 48.0954 22.3792 47.7384C21.6776 45.0818 20.1428 42.72 18 41C15.4114 39.226 12.3414 38.2878 9.20333 38.3117C9.31086 37.1844 9.54769 36.0732 9.90917 35H20C20.4602 35 20.8333 34.6269 20.8333 34.1667C20.8333 33.7064 20.4602 33.3333 20 33.3333H10.5325C10.8392 32.61 11.1325 32.025 11.3233 31.6667H38.6767C38.8675 32.025 39.1608 32.61 39.4675 33.3333H30C29.5398 33.3333 29.1667 33.7064 29.1667 34.1667C29.1667 34.6269 29.5398 35 30 35H40.0908C40.4523 36.0732 40.6891 37.1844 40.7967 38.3117C37.6586 38.2876 34.5885 39.2258 32 41Z" fill="white"/>
<path d="M26.6666 33.3333C26.09 33.3204 25.5187 33.4453 25 33.6975C24.4813 33.4453 23.9099 33.3204 23.3333 33.3333C22.8731 33.3333 22.5 33.7064 22.5 34.1666C22.5 34.6269 22.8731 34.9999 23.3333 34.9999C23.622 35.0008 23.9084 35.0512 24.18 35.1491C24.2518 35.5456 24.597 35.834 25 35.834C25.403 35.834 25.7482 35.5456 25.82 35.1491C26.0914 35.0507 26.3779 35.0002 26.6666 34.9999C27.1269 34.9999 27.5 34.6269 27.5 34.1666C27.5 33.7064 27.1269 33.3333 26.6666 33.3333Z" fill="white"/>
</g>
<defs>
<clipPath id="clip0">
<rect width="50" height="50" fill="white"/>
</clipPath>
</defs>
</svg>
