<svg width="50" height="50" viewBox="0 0 50 50" fill="none" xmlns="http://www.w3.org/2000/svg">
<g clip-path="url(#clip0)">
<path d="M14.5832 41.6667C12.2857 41.6667 10.4165 43.5359 10.4165 45.8334C10.4165 48.1309 12.2856 50.0001 14.5832 50.0001C16.8808 50 18.7499 48.1309 18.7499 45.8334C18.7499 43.5359 16.8808 41.6667 14.5832 41.6667ZM14.5832 48.3334C13.2049 48.3334 12.0832 47.2117 12.0832 45.8334C12.0832 44.455 13.2049 43.3334 14.5832 43.3334C15.9615 43.3334 17.0832 44.455 17.0832 45.8334C17.0832 47.2117 15.9615 48.3334 14.5832 48.3334Z" fill="white"/>
<path d="M44.5834 41.6667C42.286 41.6667 40.4167 43.5359 40.4167 45.8334C40.4167 48.1309 42.2859 50.0001 44.5834 50.0001C46.8809 50.0001 48.7501 48.131 48.7501 45.8334C48.7501 43.5359 46.881 41.6667 44.5834 41.6667ZM44.5834 48.3334C43.2051 48.3334 42.0834 47.2117 42.0834 45.8334C42.0834 44.455 43.2051 43.3334 44.5834 43.3334C45.9618 43.3334 47.0834 44.455 47.0834 45.8334C47.0834 47.2117 45.9618 48.3334 44.5834 48.3334Z" fill="white"/>
<path d="M48.0201 16.6734L8.75005 11.7642V7.35923C8.75005 6.69761 8.48169 6.05005 8.01421 5.58589L6.83921 4.41089L5.66089 5.58921L6.83843 6.76675C6.99429 6.92173 7.08345 7.13677 7.08345 7.35845V32.5C7.08345 34.7975 8.95259 36.6667 11.2501 36.6667H44.5834C46.8809 36.6667 48.7501 34.7976 48.7501 32.5V17.5C48.75 17.08 48.4368 16.725 48.0201 16.6734ZM47.0833 32.5C47.0833 33.8784 45.9617 35 44.5833 35H11.25C9.87173 35 8.75005 33.8784 8.75005 32.5V13.4442L47.0833 18.2359V32.5Z" fill="white"/>
<path d="M11.25 41.6667C9.87163 41.6667 8.74995 40.5451 8.74995 39.1667V31.6667H7.08325V39.1667C7.08325 41.4642 8.95239 43.3334 11.25 43.3334H44.5833V41.6667H11.25Z" fill="white"/>
<path d="M47.9167 24.1666H7.91675V25.8333H47.9167V24.1666Z" fill="white"/>
<path d="M13.7502 13.3334H12.0835V35.8334H13.7502V13.3334Z" fill="white"/>
<path d="M28.75 15H27.0833V35.8333H28.75V15Z" fill="white"/>
<path d="M23.75 15H22.0833V35.8333H23.75V15Z" fill="white"/>
<path d="M18.75 14.1666H17.0833V35.8333H18.75V14.1666Z" fill="white"/>
<path d="M33.75 15.8333H32.0833V35.8333H33.75V15.8333Z" fill="white"/>
<path d="M38.7502 16.6667H37.0835V35.8335H38.7502V16.6667Z" fill="white"/>
<path d="M43.7499 17.5H42.0833V35.8333H43.7499V17.5Z" fill="white"/>
<path d="M4.5833 0C2.74502 0 1.25 1.49502 1.25 3.3333C1.25 5.17168 2.74502 6.6666 4.5833 6.6666C6.42158 6.6666 7.9166 5.17158 7.9166 3.3333C7.9167 1.49502 6.42168 0 4.5833 0ZM4.5833 5C3.66416 5 2.9166 4.25254 2.9166 3.3333C2.9166 2.41416 3.66406 1.6666 4.5833 1.6666C5.50254 1.6667 6.25 2.41416 6.25 3.3333C6.25 4.25254 5.50254 5 4.5833 5Z" fill="white"/>
</g>
<defs>
<clipPath id="clip0">
<rect width="50" height="50" fill="white"/>
</clipPath>
</defs>
</svg>
