<svg width="12" height="12" viewBox="0 0 12 12" fill="none" xmlns="http://www.w3.org/2000/svg">
<g clip-path="url(#clip0)">
<path d="M1.78726 -0.1H10.2133C10.4064 -0.1 10.563 0.0566201 10.563 0.249662V11.7503C10.563 11.8901 10.4796 12.017 10.3505 12.072M1.78726 -0.1L2.02973 12.002L6.0003 8.17869L9.97077 12.0019C9.97082 12.002 9.97087 12.002 9.97092 12.0021C10.0372 12.0662 10.1247 12.1 10.2133 12.1C10.2593 12.1 10.3062 12.091 10.3505 12.072M1.78726 -0.1C1.5939 -0.1 1.4376 0.0566852 1.4376 0.249662M1.78726 -0.1L1.4376 0.249662M10.3505 12.072C10.3504 12.072 10.3504 12.072 10.3504 12.072L10.3112 11.98L10.3506 12.0719C10.3506 12.072 10.3505 12.072 10.3505 12.072ZM1.4376 0.249662V11.7503M1.4376 0.249662V11.7503M1.4376 11.7503C1.4376 11.8905 1.52116 12.0171 1.65024 12.072M1.4376 11.7503L1.65024 12.072M1.65024 12.072C1.77922 12.1269 1.9288 12.0994 2.02964 12.0021L1.65024 12.072ZM5.7577 7.44176L2.13692 10.9283V0.599324H9.86369V10.9283L6.24291 7.44176C6.24283 7.44169 6.24276 7.44162 6.24269 7.44155C6.17505 7.37612 6.08742 7.34367 6.0003 7.34367C5.91319 7.34367 5.82557 7.37612 5.75793 7.44154C5.75785 7.44161 5.75778 7.44169 5.7577 7.44176Z" fill="white" stroke="white" stroke-width="0.2"/>
</g>
<defs>
<clipPath id="clip0">
<rect width="12" height="12" fill="white"/>
</clipPath>
</defs>
</svg>
