<svg width="8" height="8" viewBox="0 0 8 8" fill="none" xmlns="http://www.w3.org/2000/svg">
<path d="M5.31999 3.99975L7.7949 6.47466C8.06835 6.74811 8.06835 7.19144 7.7949 7.46446L7.46496 7.7944C7.19142 8.06794 6.74809 8.06794 6.47507 7.7944L4.00025 5.31958L1.52534 7.79491C1.25189 8.06836 0.808561 8.06836 0.535537 7.79491L0.205088 7.46498C-0.0683628 7.19144 -0.0683628 6.74811 0.205088 6.47508L2.68042 3.99975L0.205601 1.52493C-0.0679355 1.2514 -0.0679355 0.808064 0.205601 0.535039L0.535537 0.205104C0.808988 -0.0683479 1.25232 -0.0683479 1.52534 0.205104L4.00025 2.68001L6.47507 0.205104C6.7486 -0.0683479 7.19194 -0.0683479 7.46496 0.205104L7.7949 0.535039C8.06835 0.808576 8.06835 1.25191 7.7949 1.52493L5.31999 3.99975Z" fill="#696969"/>
</svg>
