<svg width="13" height="13" viewBox="0 0 13 13" fill="none" xmlns="http://www.w3.org/2000/svg">
<g clip-path="url(#clip0)">
<path d="M12.8412 12.0753L9.14432 8.37851C9.8604 7.49398 10.2916 6.37003 10.2916 5.14588C10.2916 2.30866 7.98299 9.15527e-05 5.14577 9.15527e-05C2.30854 9.15527e-05 0 2.30864 0 5.14586C0 7.98308 2.30857 10.2916 5.14579 10.2916C6.36994 10.2916 7.49389 9.86049 8.37842 9.14441L12.0753 12.8412C12.1809 12.9469 12.3195 13 12.4582 13C12.5969 13 12.7356 12.9469 12.8412 12.8412C13.053 12.6295 13.053 12.2871 12.8412 12.0753ZM5.14579 9.20832C2.90547 9.20832 1.08333 7.38618 1.08333 5.14586C1.08333 2.90554 2.90547 1.0834 5.14579 1.0834C7.38611 1.0834 9.20825 2.90554 9.20825 5.14586C9.20825 7.38618 7.38609 9.20832 5.14579 9.20832Z" fill="white"/>
</g>
<defs>
<clipPath id="clip0">
<rect width="13" height="13" fill="white"/>
</clipPath>
</defs>
</svg>
