<svg width="154" height="154" viewBox="0 0 154 154" fill="none" xmlns="http://www.w3.org/2000/svg">
<g clip-path="url(#clip0)">
<path d="M134.886 103.462L135.575 101.862L147.917 107.137L148.099 107.215L148.179 107.033L148.536 106.216L148.617 106.032L148.432 105.952L135.098 100.211L134.915 100.132L134.836 100.315L133.7 102.946L133.621 103.129L133.803 103.209L134.622 103.567L134.806 103.647L134.886 103.462Z" fill="#EA4C89" stroke="#EA4C89" stroke-width="0.4"/>
<path d="M130.794 108.902L130.624 108.8L130.52 108.968L130.043 109.743L129.937 109.915L130.11 110.019L142.545 117.532L142.714 117.635L142.819 117.466L143.296 116.691L143.402 116.52L143.229 116.415L130.794 108.902Z" fill="#EA4C89" stroke="#EA4C89" stroke-width="0.4"/>
<path d="M136.147 126.725L136.276 126.57L136.12 126.442L130.807 122.092L136.904 125.545L137.049 125.627L137.156 125.499L137.743 124.797L137.872 124.643L137.717 124.515L126.512 115.247L126.359 115.12L126.231 115.273L125.645 115.975L125.515 116.129L125.671 116.257L131.012 120.659L124.877 117.185L124.732 117.103L124.625 117.231L124.038 117.933L123.908 118.088L124.064 118.216L135.279 127.454L135.433 127.58L135.56 127.427L136.147 126.725Z" fill="#EA4C89" stroke="#EA4C89" stroke-width="0.4"/>
<path d="M123.624 131.092L123.494 130.945L123.344 131.072L122.618 131.691L122.463 131.823L122.597 131.976L125.317 135.063C125.318 135.064 125.318 135.064 125.318 135.064C125.696 135.501 126.141 135.658 126.618 135.678L126.618 135.679L126.632 135.678C126.861 135.672 127.07 135.653 127.283 135.577C127.497 135.5 127.702 135.373 127.934 135.17L127.935 135.17L127.942 135.163C128.162 134.951 128.306 134.748 128.454 134.526L128.46 134.518L128.464 134.508C128.577 134.294 128.659 134.065 128.697 133.852L128.699 133.84L128.699 133.829C128.716 133.571 128.674 133.365 128.603 133.158C128.573 133.026 128.498 132.914 128.425 132.822C128.379 132.764 128.321 132.7 128.266 132.639C128.235 132.605 128.205 132.571 128.179 132.541L128.178 132.54L120.657 123.939C120.657 123.939 120.657 123.939 120.657 123.939C120.488 123.743 120.319 123.564 120.085 123.441C119.897 123.337 119.686 123.26 119.444 123.256C119.226 123.251 118.983 123.279 118.746 123.389C118.493 123.484 118.259 123.623 118.036 123.836C117.805 124.038 117.65 124.228 117.548 124.432C117.446 124.637 117.404 124.843 117.378 125.065L117.378 125.065L117.378 125.068C117.336 125.503 117.429 125.994 117.806 126.431L117.807 126.433L121.317 130.442L121.448 130.592L121.599 130.461L122.724 129.478L122.875 129.346L122.743 129.196L122.142 128.51L122.01 128.361L121.86 128.491L121.57 128.744L118.818 125.616C118.695 125.45 118.629 125.293 118.632 125.158C118.634 125.028 118.702 124.879 118.865 124.739L118.865 124.739L118.873 124.732C118.958 124.649 119.029 124.61 119.088 124.592C119.146 124.574 119.206 124.572 119.277 124.585L119.288 124.587L119.299 124.587C119.45 124.597 119.561 124.672 119.679 124.83L119.684 124.836L119.689 124.841L127.206 133.438C127.341 133.618 127.405 133.741 127.403 133.866C127.4 134.015 127.358 134.139 127.211 134.265C127.05 134.403 126.918 134.439 126.773 134.41L126.755 134.406L126.737 134.406C126.603 134.403 126.459 134.333 126.355 134.194L126.351 134.188L126.345 134.182L123.624 131.092Z" fill="#EA4C89" stroke="#EA4C89" stroke-width="0.4"/>
<path d="M114.595 136.261L117.647 141.092L116.127 142.038L115.956 142.145L116.064 142.315L116.563 143.099L116.669 143.265L116.837 143.162L119.301 141.643L119.473 141.537L119.366 141.366L111.641 129.051L111.535 128.883L111.366 128.987L108.902 130.507L108.733 130.611L108.836 130.781L109.305 131.554L109.41 131.727L109.581 131.62L111.103 130.673L113.913 135.15L112.991 135.735L112.825 135.84L112.927 136.008L113.396 136.781L113.502 136.956L113.674 136.846L114.595 136.261Z" fill="#EA4C89" stroke="#EA4C89" stroke-width="0.4"/>
<path d="M99.6217 135.057L99.8016 134.977L100.644 134.602L100.83 134.519L100.91 134.706L103.156 139.983C103.235 140.147 103.353 140.268 103.483 140.34C103.607 140.404 103.749 140.4 103.995 140.331L104.481 140.118L101.972 134.259L101.893 134.073L102.08 133.995L102.912 133.65L103.095 133.574L103.172 133.756L108.845 147.096L108.923 147.28L108.739 147.358L107.268 147.982C107.268 147.982 107.268 147.982 107.268 147.982C106.667 148.241 106.218 148.235 105.776 148.115L105.768 148.113L105.761 148.111C105.321 147.955 104.938 147.627 104.742 147.104L102.96 142.902L99.6217 135.057ZM99.6217 135.057L99.699 135.239M99.6217 135.057L99.699 135.239M99.699 135.239L102.003 140.637C102.179 141.108 102.506 141.42 102.891 141.591M99.699 135.239L102.891 141.591M102.891 141.591C102.752 141.988 102.759 142.431 102.96 142.901L102.891 141.591ZM104.2 142.38L104.195 142.368L104.188 142.357C104.1 142.208 104.106 142.042 104.156 141.901C104.177 141.841 104.225 141.776 104.304 141.707C104.379 141.641 104.472 141.58 104.571 141.52L105.014 141.327L107.308 146.716L106.904 146.892C106.642 146.965 106.468 146.982 106.349 146.919L106.336 146.913L106.323 146.908C106.201 146.865 106.066 146.746 105.999 146.566L105.999 146.566L105.995 146.556L104.2 142.38Z" fill="#EA4C89" stroke="#EA4C89" stroke-width="0.4"/>
<path d="M93.5836 137.222L93.5329 137.031L93.3416 137.079L92.4515 137.303L92.2548 137.352L92.307 137.548L96.0436 151.583L96.0944 151.774L96.2856 151.726L97.1757 151.502L97.3725 151.453L97.3203 151.257L93.5836 137.222Z" fill="#EA4C89" stroke="#EA4C89" stroke-width="0.4"/>
<path d="M83.5234 139.123L83.4848 138.941L83.3003 138.967L82.4121 139.09L82.2004 139.119L82.2437 139.328L85.1909 153.589L85.2282 153.77L85.411 153.747L86.3293 153.635L86.5099 153.613L86.5049 153.431L86.1006 138.858L86.0945 138.639L85.8763 138.665L84.9581 138.778L84.7777 138.8L84.7825 138.982L84.8424 141.284L84.0039 141.387L83.5234 139.123ZM84.9358 145.971L84.2517 142.65L84.8367 142.587L84.9358 145.971Z" fill="#EA4C89" stroke="#EA4C89" stroke-width="0.4"/>
<path d="M63.3025 147.899L63.0995 147.864L63.0705 148.068L62.6652 150.924C62.6652 150.924 62.6652 150.924 62.6652 150.924C62.5891 151.452 62.7114 151.953 63.0047 152.328L63.0045 152.328L63.0095 152.334C63.3315 152.714 63.7456 152.93 64.3497 153.038C64.6234 153.098 64.9477 153.104 65.2236 153.056C65.4642 153.025 65.7223 152.93 65.9172 152.809C66.1142 152.687 66.2849 152.522 66.4202 152.349L66.4204 152.349L66.4254 152.342C66.579 152.127 66.633 151.879 66.6826 151.651C66.6857 151.637 66.6886 151.624 66.6916 151.61L66.692 151.61L66.694 151.597C66.7183 151.439 66.7441 151.281 66.7696 151.125C66.8501 150.63 66.9283 150.15 66.9521 149.713L66.9521 149.713L66.9522 149.71C66.9723 149.173 66.9625 148.621 66.9001 148.115C66.8683 147.627 66.8145 147.192 66.6983 146.734C66.6425 146.513 66.5681 146.202 66.5075 145.944C66.4772 145.816 66.4504 145.701 66.4312 145.618L66.4086 145.521L66.4025 145.495L66.4009 145.488L66.4005 145.486L66.4004 145.486L66.4004 145.486L66.4004 145.486L66.4008 145.485L66.3972 145.474C66.2988 145.142 66.2402 144.827 66.1757 144.479C66.1619 144.405 66.1478 144.329 66.1331 144.251L66.1329 144.251C66.0164 143.65 65.9681 143.038 65.9513 142.33L65.9516 142.33L65.9506 142.319C65.8953 141.651 65.9768 140.86 66.1336 139.945C66.1862 139.707 66.2374 139.591 66.3594 139.5L66.3693 139.492L66.3783 139.484C66.4129 139.451 66.4724 139.423 66.5702 139.409C66.6665 139.396 66.7807 139.399 66.9048 139.411C67.1611 139.443 67.3438 139.548 67.4098 139.644C67.4722 139.78 67.5107 139.952 67.4784 140.112L67.4783 140.112L67.4772 140.119L67.0012 142.984L66.9686 143.181L67.1645 143.214L68.0878 143.373L68.2861 143.407L68.3191 143.209L68.795 140.344L68.795 140.344L68.7953 140.342C68.8836 139.778 68.7473 139.307 68.4563 138.935L68.4564 138.935L68.4514 138.929C68.1287 138.548 67.7135 138.332 67.1073 138.224L67.1074 138.224L67.0968 138.223C66.8071 138.187 66.5178 138.157 66.2319 138.208L66.2318 138.208L66.2184 138.211C66.2133 138.213 66.2082 138.214 66.2031 138.215C65.9918 138.268 65.7435 138.331 65.5437 138.454L65.5257 138.465L65.5104 138.48C65.483 138.506 65.4547 138.533 65.4259 138.56C65.3052 138.672 65.1748 138.794 65.0549 138.962L65.0483 138.971L65.0428 138.981C64.9372 139.172 64.8572 139.401 64.7993 139.664L64.799 139.664L64.7972 139.675C64.7758 139.807 64.7539 139.937 64.7323 140.066C64.6411 140.609 64.5556 141.119 64.5388 141.562C64.5078 142.133 64.5287 142.656 64.5908 143.159C64.6231 143.651 64.6964 144.124 64.7916 144.536L64.7913 144.536L64.7943 144.547C64.8662 144.797 64.9102 145.038 64.9444 145.313L64.9463 145.329L64.9506 145.344C65.0997 145.861 65.2282 146.44 65.3273 147.009L65.3273 147.009L65.328 147.013C65.4446 147.613 65.4929 148.225 65.5097 148.933C65.5262 149.627 65.4431 150.424 65.2972 151.308C65.2419 151.558 65.1799 151.685 65.0859 151.743L65.0679 151.754L65.0526 151.769C65.0133 151.807 64.9453 151.84 64.8443 151.86C64.746 151.879 64.6311 151.882 64.5155 151.871C64.2724 151.841 64.0848 151.711 64.0158 151.6L64.0087 151.589L64.0001 151.578C63.9267 151.489 63.878 151.332 63.9218 151.133L63.9221 151.133L63.9238 151.122L64.3892 148.287L64.4213 148.091L64.2258 148.058L63.3025 147.899Z" fill="#EA4C89" stroke="#EA4C89" stroke-width="0.4"/>
<path d="M51.2942 149.757L51.4858 149.825L51.5506 149.633L53.9166 142.592L55.0479 142.969L52.6718 150.037L52.6091 150.224L52.7945 150.29L53.6346 150.588L53.826 150.656L53.891 150.463L58.5356 136.704L58.5986 136.518L58.413 136.452L57.5728 136.154L57.3813 136.086L57.3164 136.278L55.4941 141.691L54.3628 141.315L56.1846 135.904L56.2474 135.717L56.0619 135.651L55.2217 135.353L55.0303 135.286L54.9654 135.478L50.3314 149.207L50.2684 149.393L50.454 149.459L51.2942 149.757Z" fill="#EA4C89" stroke="#EA4C89" stroke-width="0.4"/>
<path d="M41.8944 145.288L41.9068 145.286L41.9188 145.283C42.1655 145.221 42.3623 145.13 42.5475 144.953C42.7292 144.778 42.8472 144.548 42.9595 144.325L48.3497 134.272L48.3498 134.272L48.3522 134.267C48.3782 134.216 48.4049 134.167 48.4325 134.117L48.4345 134.114C48.4622 134.064 48.4914 134.011 48.5177 133.957C48.5713 133.846 48.6168 133.722 48.6261 133.572L48.6263 133.572L48.6265 133.563C48.6304 133.353 48.6233 133.162 48.561 132.916C48.4949 132.655 48.3677 132.452 48.1991 132.277L48.1993 132.277L48.1907 132.269C48.1888 132.268 48.1869 132.266 48.185 132.264C48.0102 132.103 47.8149 131.923 47.5315 131.784C47.2611 131.635 47.0309 131.561 46.8033 131.539C46.5775 131.517 46.3673 131.548 46.1471 131.59L46.147 131.59L46.1395 131.591C45.6894 131.694 45.2472 131.958 44.9853 132.478L39.5951 142.531L39.595 142.531L39.5927 142.536C39.3354 143.048 39.349 143.547 39.4983 143.976L39.4979 143.976L39.5024 143.987C39.5879 144.193 39.6824 144.38 39.8297 144.553C39.9765 144.726 40.1673 144.876 40.434 145.024C40.7009 145.19 40.937 145.276 41.2263 145.305C41.4461 145.348 41.6388 145.322 41.8106 145.299C41.8391 145.295 41.8671 145.291 41.8944 145.288ZM41.7481 143.699L41.7481 143.699L41.7472 143.701C41.6501 143.886 41.5574 143.987 41.4384 144.029C41.3002 144.076 41.1577 144.077 40.9807 143.991C40.8006 143.87 40.7229 143.766 40.6824 143.61C40.6587 143.486 40.6876 143.316 40.7758 143.147C40.7759 143.147 40.776 143.147 40.7762 143.147L46.105 133.172L46.1051 133.172L46.1073 133.168C46.1603 133.062 46.2059 132.994 46.256 132.944C46.304 132.897 46.3646 132.857 46.459 132.822C46.6254 132.761 46.7572 132.778 46.9534 132.877C47.0516 132.926 47.1122 132.974 47.1503 133.022C47.1864 133.067 47.2095 133.12 47.2185 133.192L47.2211 133.213L47.2281 133.233C47.2648 133.339 47.2308 133.479 47.1285 133.675C47.1283 133.675 47.1282 133.675 47.128 133.675L41.7481 143.699Z" fill="#EA4C89" stroke="#EA4C89" stroke-width="0.4"/>
<path d="M39.338 126.898L35.4476 131.956L35.0506 131.647C34.5488 131.256 34.1403 131.101 33.623 131.147C33.1452 131.174 32.7195 131.412 32.381 131.845L32.3805 131.846L29.5135 135.548C29.5134 135.548 29.5133 135.548 29.5132 135.548C29.1771 135.979 29.0323 136.467 29.1405 136.942C29.2344 137.431 29.4817 137.815 29.9858 138.208L31.244 139.227L31.4034 139.356L31.5284 139.194L40.3696 127.699L40.4907 127.542L40.334 127.419L39.6194 126.862L39.4607 126.739L39.338 126.898ZM33.3579 132.798L33.3625 132.792L33.3666 132.786C33.4737 132.625 33.6213 132.551 33.7617 132.521C33.9046 132.507 34.0907 132.564 34.2841 132.691L34.6767 132.997L31.1041 137.63L30.7137 137.326C30.5532 137.176 30.4386 136.995 30.4211 136.853C30.4031 136.709 30.4401 136.579 30.5676 136.385L33.3579 132.798Z" fill="#EA4C89" stroke="#EA4C89" stroke-width="0.4"/>
<path d="M25.3017 114.137L26.3512 115.539L15.637 123.596L15.4775 123.716L15.5971 123.876L16.1473 124.611L16.2674 124.771L16.4275 124.651L28.0363 115.925L28.1959 115.805L28.0762 115.645L26.3569 113.349L26.2373 113.19L26.0773 113.309L25.3422 113.857L25.1816 113.977L25.3017 114.137Z" fill="#EA4C89" stroke="#EA4C89" stroke-width="0.4"/>
<path d="M22.625 107.893L22.8023 107.795L22.7019 107.619L22.2436 106.816L22.1456 106.644L21.9727 106.74L9.30798 113.777L9.13518 113.873L9.22917 114.047L9.65745 114.839L9.7535 115.017L9.93025 114.919L22.625 107.893Z" fill="#EA4C89" stroke="#EA4C89" stroke-width="0.4"/>
<path d="M4.44561 103.662L4.51439 103.853L4.70428 103.782L11.1239 101.363L5.08913 104.901L4.9458 104.985L5.00212 105.141L5.30852 105.991L5.37748 106.183L5.56767 106.11L19.154 100.951L19.3378 100.882L19.2712 100.697L18.9648 99.8463L18.8958 99.655L18.7057 99.7271L12.3093 102.153L18.3217 98.6079L18.4644 98.5237L18.4083 98.3678L18.1019 97.5174L18.0329 97.326L17.8427 97.3983L4.25637 102.557L4.07256 102.627L4.13921 102.812L4.44561 103.662Z" fill="#EA4C89" stroke="#EA4C89" stroke-width="0.4"/>
<path d="M6.83021 90.666L7.02023 90.6272L6.98733 90.4361L6.83283 89.5385L6.79784 89.3352L6.59575 89.3764L2.55338 90.2011L2.55338 90.2011L2.5517 90.2014C2.01486 90.3158 1.63541 90.6391 1.3841 91.0328L1.38408 91.0327L1.38243 91.0354C1.25583 91.2408 1.16632 91.4319 1.12656 91.6563C1.08715 91.8786 1.09934 92.1181 1.15138 92.417L1.15324 92.4276L1.15623 92.438C1.23335 92.7059 1.32416 92.9544 1.46083 93.1865C1.57536 93.4221 1.74616 93.596 1.91823 93.7301L1.91811 93.7303L1.92519 93.7353C2.14236 93.8899 2.32042 93.952 2.56106 94.0006L2.56105 94.0007L2.56562 94.0015C2.69127 94.0238 2.81869 94.0153 2.93778 93.9988C3.01752 93.9877 3.10438 93.9712 3.18892 93.9552C3.22727 93.9479 3.26514 93.9407 3.30165 93.9342L3.30166 93.9343L3.30667 93.9332L14.4917 91.6322C14.5147 91.6281 14.5381 91.6241 14.5617 91.62C14.7742 91.5835 15.0093 91.5431 15.2145 91.3932C15.401 91.2769 15.5741 91.1363 15.6999 90.8965C15.7057 90.8855 15.7115 90.8745 15.7173 90.8635C15.8118 90.6841 15.9148 90.4888 15.9339 90.2309C15.9825 89.9771 15.9613 89.7092 15.8941 89.4068C15.8261 89.1003 15.7398 88.8703 15.616 88.6793C15.4915 88.4872 15.3371 88.3473 15.1536 88.211C14.7611 87.9195 14.3044 87.7985 13.7457 87.8986L13.7457 87.8986L13.7413 87.8995L8.53692 88.9524L8.34285 88.9917L8.38016 89.1861L8.66476 90.6693L8.70279 90.8675L8.90063 90.8277L9.81012 90.6446L10.0011 90.6062L9.9677 90.4143L9.90099 90.0311L13.9974 89.2013C14.1885 89.1786 14.3399 89.1873 14.4853 89.2634C14.6167 89.3322 14.6962 89.4434 14.7339 89.6515L14.7357 89.6615L14.7385 89.6712C14.7685 89.7755 14.7679 89.8517 14.7544 89.9116C14.7408 89.9723 14.7107 90.0303 14.6613 90.0936L14.6611 90.0935L14.6561 90.1006C14.5673 90.225 14.4403 90.2781 14.2251 90.3324L3.05494 92.6027C2.92898 92.6252 2.83252 92.6389 2.75208 92.6363C2.67586 92.6339 2.62851 92.6171 2.5922 92.5889L2.57985 92.5792L2.56615 92.5716C2.45037 92.5075 2.36169 92.412 2.29821 92.1916C2.26835 92.0878 2.26879 92.0119 2.2834 91.9483C2.29856 91.8823 2.33236 91.8148 2.39127 91.7323L2.39786 91.723L2.40336 91.7131C2.45431 91.6212 2.58363 91.5428 2.79236 91.4897L6.83021 90.666Z" fill="#EA4C89" stroke="#EA4C89" stroke-width="0.4"/>
<path d="M8.08525 80.2017L8.04605 79.1057L8.03873 78.9012L7.83446 78.9132L6.93746 78.9658L6.74231 78.9772L6.7493 79.1726L6.78862 80.2717L1.08032 80.5158L0.996134 78.6928L0.986916 78.4932L0.7873 78.5022L-0.1397 78.5442L-0.338509 78.5532L-0.33049 78.752L-0.213244 81.6592L-0.205167 81.8595L-0.0049005 81.8509L14.504 81.2333L14.7034 81.2248L14.6953 81.0254L14.5781 78.1183L14.5699 77.9148L14.3665 77.9267L13.4695 77.9793L13.2741 77.9908L13.2814 78.1864L13.348 79.9695L8.08525 80.2017Z" fill="#EA4C89" stroke="#EA4C89" stroke-width="0.4"/>
<path d="M14.7642 70.3361L8.41482 69.5869L8.48367 69.0452L8.48377 69.0452L8.48436 69.039C8.5048 68.8255 8.58612 68.6818 8.71796 68.5834L8.7181 68.5836L8.72546 68.5775C8.81708 68.5021 8.98189 68.452 9.17747 68.4633L14.8777 69.1384L15.074 69.1616L15.0996 68.9656L15.217 68.0633L15.2431 67.8626L15.0421 67.8389L9.20922 67.1509C8.69667 67.0714 8.25296 67.2012 7.92088 67.4501C7.64557 67.1136 7.26079 66.9007 6.74151 66.8502C6.74111 66.8502 6.74071 66.8501 6.74031 66.8501L2.22594 66.3593C1.65676 66.2712 1.17253 66.4413 0.831872 66.746L0.831787 66.7459L0.82663 66.7509C0.482796 67.0812 0.2661 67.4931 0.189872 68.1158L0.189821 68.1162L-0.000634461 69.7005L-0.02454 69.8994L0.174357 69.923L14.5998 71.6357L14.7962 71.659L14.8217 71.4629L14.9391 70.5606L14.9652 70.3599L14.7642 70.3361ZM7.04769 68.3922L7.05258 68.3981L7.05791 68.4036C7.14613 68.4951 7.19411 68.6741 7.17186 68.9104L7.11177 69.4217L1.28773 68.7426L1.35833 68.2826C1.41138 68.0438 1.48285 67.8746 1.59854 67.7842C1.73857 67.6991 1.88579 67.65 2.09126 67.6695L6.60006 68.1907L6.60005 68.1907L6.60377 68.1911C6.82349 68.2124 6.96976 68.2978 7.04769 68.3922Z" fill="#EA4C89" stroke="#EA4C89" stroke-width="0.4"/>
<path d="M16.3186 61.5632L16.5101 61.6141L16.5628 61.4232L16.8003 60.5634L16.854 60.3688L16.6589 60.3169L2.61324 56.5814L2.4218 56.5305L2.36906 56.7215L2.13162 57.5812L2.07787 57.7758L2.273 57.8277L16.3186 61.5632Z" fill="#EA4C89" stroke="#EA4C89" stroke-width="0.4"/>
<path d="M19.6794 51.8672L19.8459 51.9215L19.9217 51.7637L20.3092 50.9572L20.4082 50.7512L20.1908 50.6804L6.32075 46.1644L6.14829 46.1083L6.0756 46.2744L5.71814 47.0916L5.64395 47.2612L5.80732 47.3482L18.6775 54.2065L18.8682 54.3081L18.9548 54.1102L19.3123 53.293L19.3862 53.1241L19.2237 53.0367L17.1702 51.9328L17.4935 51.1542L19.6794 51.8672ZM13.0065 49.7037L16.2292 50.7506L16.0004 51.2865L13.0065 49.7037Z" fill="#EA4C89" stroke="#EA4C89" stroke-width="0.4"/>
<path d="M22.0013 29.965L22.129 29.8122L21.9767 29.6838L19.7662 27.8208L19.7663 27.8207L19.7602 27.816C19.3253 27.477 18.8425 27.3397 18.3615 27.3987L18.3614 27.3982L18.3488 27.4006C17.8669 27.4914 17.4495 27.7206 17.0603 28.2005C16.8747 28.4209 16.7052 28.6891 16.6104 28.9564C16.5207 29.2093 16.4656 29.4636 16.4973 29.7193L16.6958 29.6946L16.4973 29.7193C16.5263 29.952 16.5991 30.1613 16.6644 30.3489L16.667 30.3565L16.6707 30.367L16.6754 30.377C16.7909 30.6187 16.9652 30.7946 17.1805 30.9755L17.1805 30.9756L17.1839 30.9783C17.2532 31.034 17.3222 31.0898 17.391 31.1453C17.8388 31.5068 18.2749 31.8587 18.6901 32.1258C19.1697 32.4342 19.669 32.68 20.115 32.8724C20.1308 32.8792 20.1466 32.886 20.1624 32.8929C20.5819 33.074 20.9902 33.2502 21.4205 33.3692L21.4216 33.3695C21.6184 33.4228 21.921 33.5134 22.1764 33.5913C22.3037 33.6302 22.4185 33.6656 22.5015 33.6914L22.5996 33.722L22.6262 33.7303L22.6331 33.7324L22.6349 33.733L22.6353 33.7331L22.6354 33.7332L22.6354 33.7332L22.6354 33.7333L22.643 33.7354C23.0351 33.8415 23.4179 33.9772 23.8393 34.1267C24.3969 34.3245 24.9665 34.5925 25.5917 34.915C26.2024 35.23 26.8658 35.696 27.5633 36.2774L27.5691 36.2823L27.5753 36.2868C27.7348 36.4003 27.8282 36.5393 27.8455 36.6781L27.8481 36.6992L27.855 36.7192C27.8666 36.7524 27.8675 36.8124 27.8316 36.9042C27.7967 36.9933 27.7349 37.0913 27.6573 37.1833C27.503 37.3665 27.3268 37.4792 27.188 37.5018C27.0382 37.4955 26.874 37.4385 26.7193 37.3295L24.4622 35.5195L24.3075 35.3955L24.1821 35.5491L23.5846 36.281L23.457 36.4373L23.6144 36.5635L25.8762 38.3773L25.8762 38.3773L25.8784 38.379C26.3138 38.7184 26.7667 38.8446 27.2471 38.7857L27.2472 38.7861L27.2598 38.7837C27.7423 38.6928 28.16 38.4633 28.5496 37.9824L28.5496 37.9824L28.5517 37.9796C28.7414 37.7369 28.9023 37.4983 28.9982 37.228L29.0024 37.2162L29.0051 37.2041C29.0596 36.956 29.1086 36.7171 29.1128 36.4934L29.113 36.4792L29.1113 36.4651C29.0837 36.243 29.0431 36.0376 28.9332 35.8074C28.8178 35.5657 28.6434 35.3898 28.4281 35.2088L28.4282 35.2087L28.4224 35.2042C28.2711 35.0863 28.1247 34.9692 27.9818 34.8549C27.6106 34.558 27.2635 34.2805 26.9185 34.0586L26.9185 34.0586L26.9164 34.0573C26.4091 33.7398 25.9411 33.505 25.4937 33.312C25.4778 33.3051 25.462 33.2983 25.4462 33.2915C25.0267 33.1104 24.6185 32.9342 24.1881 32.8152L24.1881 32.815L24.1805 32.8132C23.9121 32.7503 23.682 32.6688 23.4109 32.5726L23.3999 32.5687L23.3885 32.5661C22.8655 32.4469 22.3223 32.2876 21.7587 32.0876C21.2011 31.8898 20.6315 31.6218 20.0063 31.2993C19.3915 30.9823 18.7173 30.5447 18.0241 29.9668L18.0157 29.9598L18.0066 29.9537C17.83 29.8367 17.7601 29.7126 17.7419 29.5661C17.7243 29.4241 17.7912 29.2084 17.9407 29.031C18.0855 28.8592 18.289 28.7465 18.4403 28.7231C18.6063 28.7278 18.7434 28.7567 18.9005 28.8887L18.9005 28.8888L18.9035 28.8912L21.1353 30.6943L21.2883 30.8179L21.4144 30.667L22.0013 29.965Z" fill="#EA4C89" stroke="#EA4C89" stroke-width="0.4"/>
<path d="M26.4023 18.5718L26.2509 18.7043L26.3842 18.8549L31.3407 24.4554L30.4513 25.2508L25.4962 19.6519L25.3645 19.503L25.2148 19.6339L24.5291 20.2335L24.3779 20.3657L24.5108 20.5163L34.1248 31.4112L34.2565 31.5604L34.4064 31.4294L35.0921 30.8298L35.2431 30.6978L35.1106 30.5471L31.3174 26.2361L32.2068 25.4407L35.9978 29.7493L36.1295 29.899L36.2796 29.7678L36.9653 29.1682L37.1165 29.0359L36.9836 28.8853L27.3696 17.9905L27.2379 17.8412L27.088 17.9723L26.4023 18.5718Z" fill="#EA4C89" stroke="#EA4C89" stroke-width="0.4"/>
<path d="M35.1687 14.0938L35.1686 14.0938L35.1709 14.0975L41.2218 23.7942C41.3456 24.0026 41.4702 24.2077 41.6916 24.3682C41.8446 24.5004 42.0431 24.6078 42.2952 24.6587C42.5396 24.7081 42.7716 24.7137 43.028 24.6493L43.028 24.6494L43.0342 24.6476C43.318 24.5665 43.5365 24.462 43.7993 24.3114L43.8059 24.3077L43.8122 24.3034C44.0672 24.1304 44.2487 23.9703 44.3823 23.7875C44.5155 23.6051 44.5921 23.4123 44.6546 23.1878C44.8113 22.7393 44.758 22.2273 44.4779 21.756L44.478 21.756L44.4754 21.7519L38.414 12.0853C38.124 11.5988 37.6691 11.3648 37.2168 11.2785L37.2169 11.2782L37.2053 11.2766C36.9708 11.2459 36.7556 11.2343 36.531 11.2763C36.3063 11.3183 36.0859 11.4113 35.8329 11.5704C35.5711 11.7207 35.3591 11.875 35.1906 12.1258C35.0544 12.3018 34.9419 12.5175 34.8726 12.713C34.7894 12.9474 34.8182 13.1605 34.8425 13.34C34.8456 13.363 34.8487 13.3855 34.8514 13.4074C34.8689 13.5484 34.9226 13.6724 34.9816 13.7815C35.0176 13.8483 35.0627 13.9212 35.1051 13.9896C35.1276 14.0261 35.1494 14.0613 35.1687 14.0938ZM37.287 12.7888L37.2869 12.7888L37.2892 12.7925L43.3401 22.4892C43.4555 22.6838 43.4944 22.8228 43.4643 22.9719L43.4643 22.9719L43.4635 22.9765C43.4385 23.1176 43.3659 23.2535 43.1927 23.3358C42.9656 23.4437 42.8447 23.4537 42.7397 23.4165L42.7263 23.4117L42.7124 23.4089C42.5795 23.3821 42.4999 23.3049 42.379 23.1016L42.3791 23.1016L42.3765 23.0975L36.3152 13.4309C36.1979 13.2331 36.1607 13.094 36.1809 12.9759C36.1997 12.8835 36.224 12.821 36.2593 12.7678C36.2955 12.7133 36.3515 12.6563 36.4505 12.5873C36.6272 12.4641 36.7722 12.4529 36.9156 12.5038L36.9312 12.5094L36.9475 12.5123C37.0656 12.5333 37.1807 12.61 37.287 12.7888Z" fill="#EA4C89" stroke="#EA4C89" stroke-width="0.4"/>
<path d="M48.4524 5.78882L48.4457 5.78644L48.4389 5.78455C47.9674 5.6542 47.5184 5.6475 46.9168 5.90606L45.4171 6.51896L45.2296 6.59558L45.3086 6.78209L50.9704 20.1517L51.0478 20.3346L51.2313 20.2585L52.0632 19.9131L52.2487 19.8361L52.1709 19.6509L49.7018 13.7718L50.1595 13.5722C50.1597 13.5721 50.1598 13.5721 50.16 13.572C50.7484 13.3187 51.0924 13.0232 51.2975 12.5543C51.4994 12.0927 51.5048 11.6335 51.2821 11.1095C51.282 11.1093 51.282 11.1092 51.2819 11.109L49.4712 6.79598C49.2759 6.27259 48.8926 5.94499 48.4524 5.78882ZM48.2251 7.30375L48.2249 7.30381L48.228 7.31133L49.9632 11.4667L49.9629 11.4668L49.9673 11.4758C50.0576 11.665 50.046 11.8401 49.9975 11.9768C49.9485 12.1149 49.8093 12.2496 49.5905 12.3541L49.1397 12.5507L46.8745 7.17239L47.3206 6.97789C47.5822 6.90416 47.7565 6.88808 47.8753 6.95033L47.8879 6.95691L47.9012 6.96165C48.0229 7.0048 48.1584 7.12389 48.2251 7.30375Z" fill="#EA4C89" stroke="#EA4C89" stroke-width="0.4"/>
<path d="M70.4029 13.96L70.3754 13.764L70.1791 13.7895L68.4296 14.0167L66.6923 0.711278L66.6662 0.511383L66.4665 0.539067L65.5783 0.662215L65.3816 0.68948L65.4074 0.886332L67.2951 15.2769L67.3212 15.4755L67.5197 15.4492L70.3557 15.0731L70.5555 15.0466L70.5275 14.847L70.4029 13.96Z" fill="#EA4C89" stroke="#EA4C89" stroke-width="0.4"/>
<path d="M76.9311 14.5549L76.929 14.7596L77.1338 14.7569L78.0501 14.7449L78.2456 14.7423L78.2475 14.5468L78.3851 0.0656209L78.387 -0.132326L78.1891 -0.13624L77.2833 -0.154155L77.0814 -0.158148L77.0794 0.0437625L76.9311 14.5549Z" fill="#EA4C89" stroke="#EA4C89" stroke-width="0.4"/>
<path d="M89.6053 0.905709L89.4064 0.872665L89.375 1.07193L88.3044 7.8773L88.1767 0.836631L88.1736 0.670225L88.0095 0.642961L87.1162 0.494622L86.9171 0.461564L86.8858 0.660927L84.6366 14.9998L84.6059 15.1957L84.8015 15.2281L85.6947 15.3765L85.8937 15.4095L85.9251 15.2103L86.9957 8.40488L87.1234 15.4456L87.1264 15.612L87.2906 15.6392L88.1839 15.7876L88.383 15.8206L88.4142 15.6213L90.6634 1.28234L90.6942 1.08651L90.4986 1.05404L89.6053 0.905709Z" fill="#EA4C89" stroke="#EA4C89" stroke-width="0.4"/>
<path d="M99.7472 9.4374L99.6818 9.63625L99.8834 9.69253L100.775 9.94134L100.959 9.99272L101.019 9.81116L102.298 5.91863C102.49 5.37722 102.394 4.88501 102.168 4.46959C102.058 4.26754 101.935 4.0968 101.76 3.95074C101.586 3.80575 101.37 3.69407 101.087 3.59352L101.076 3.58983L101.065 3.5873C100.769 3.51778 100.495 3.49159 100.259 3.47665C99.9876 3.45948 99.7626 3.53733 99.5754 3.60207C99.5719 3.60329 99.5684 3.6045 99.5649 3.60571C99.3238 3.68905 99.1432 3.86648 99.0109 4.03368C98.911 4.13365 98.8512 4.25124 98.8069 4.36315C98.7816 4.42714 98.7557 4.50621 98.7314 4.58048C98.7164 4.6264 98.7019 4.67049 98.6886 4.70804L98.6886 4.70803L98.6872 4.71227L95.1143 15.5451C95.112 15.5515 95.1098 15.5579 95.1075 15.5643C95.0284 15.787 94.9398 16.0362 94.972 16.2953L94.973 16.3029L94.9745 16.3105C94.9792 16.3336 94.9839 16.3589 94.9889 16.386C95.0178 16.5411 95.0573 16.7535 95.1653 16.9327C95.2759 17.1609 95.4152 17.328 95.6291 17.4802C95.836 17.6276 96.0829 17.7505 96.3665 17.8511L96.3664 17.8513L96.3764 17.8543C96.6821 17.945 96.926 17.9775 97.1528 17.9601C97.3793 17.9427 97.5744 17.8766 97.7791 17.7922C98.2264 17.6079 98.5752 17.2701 98.7645 16.7366L98.7646 16.7366L98.7661 16.732L100.42 11.6888L100.482 11.4993L100.293 11.4366L98.872 10.9663L98.6796 10.9026L98.6184 11.0958L98.3404 11.9748L98.2821 12.159L98.4642 12.2236L98.8199 12.3498L97.5167 16.2961C97.455 16.4687 97.3491 16.6116 97.2276 16.6904C97.1427 16.7298 97.0733 16.7515 97.0039 16.7576C96.9329 16.7639 96.8489 16.755 96.7358 16.7149C96.613 16.6713 96.5389 16.6294 96.4907 16.5877C96.446 16.549 96.4154 16.5035 96.3921 16.4364L96.3884 16.426L96.3836 16.416C96.3232 16.2894 96.3424 16.1365 96.4134 15.9362L96.4135 15.9362L96.4149 15.932L99.9771 5.12912C100.046 4.9358 100.12 4.81966 100.234 4.74862L100.246 4.74154L100.256 4.73298C100.302 4.69555 100.348 4.67446 100.403 4.66768C100.461 4.66056 100.543 4.66771 100.657 4.70845C100.77 4.74858 100.841 4.79464 100.893 4.84428C100.945 4.89477 100.986 4.95828 101.029 5.04795L101.034 5.05794L101.039 5.06735C101.101 5.16575 101.105 5.3246 101.04 5.5084L101.04 5.50838L101.038 5.51277L99.7472 9.4374Z" fill="#EA4C89" stroke="#EA4C89" stroke-width="0.4"/>
<path d="M107.349 21.1561L105.753 20.3476L108.171 15.6573L109.172 16.1556L109.347 16.2428L109.438 16.0694L109.855 15.2736L109.95 15.0927L109.767 15.0016L108.772 14.506L111.386 9.4504L112.954 10.2491L113.131 10.3392L113.223 10.1629L113.651 9.33711L113.743 9.15865L113.564 9.06704L110.991 7.74968L110.814 7.65873L110.722 7.83618L104.09 20.7214L103.999 20.8996L104.177 20.991L106.75 22.3083L106.926 22.3986L107.018 22.2232L107.436 21.4274L107.53 21.2477L107.349 21.1561Z" fill="#EA4C89" stroke="#EA4C89" stroke-width="0.4"/>
<path d="M120.47 21.1327L120.47 21.1327L120.473 21.1291L123.177 17.5056C123.519 17.0665 123.624 16.5671 123.518 16.1028C123.424 15.6135 123.176 15.2262 122.655 14.8605L121.346 13.8913L121.184 13.7717L121.066 13.9337L112.493 25.6247L112.374 25.7867L112.536 25.9047L113.262 26.4317L113.422 26.5484L113.54 26.3887L117.323 21.2615L117.74 21.577C117.899 21.7253 117.991 21.8636 118.011 21.9998C118.015 22.1324 117.978 22.3023 117.877 22.4455L114.479 27.071L114.359 27.2346L114.525 27.3524L115.28 27.89L115.441 28.0044L115.557 27.8453L119.026 23.1118C119.333 22.7172 119.449 22.2738 119.393 21.851C119.793 21.7732 120.172 21.5147 120.47 21.1327ZM118.999 20.5973L118.998 20.597L118.989 20.5994C118.848 20.6348 118.669 20.5856 118.47 20.4541L118.072 20.1709L121.543 15.4682L121.968 15.7631C122.122 15.9077 122.233 16.0807 122.255 16.219C122.251 16.3853 122.222 16.5307 122.109 16.7017L119.408 20.3224L119.407 20.3222L119.401 20.3313C119.292 20.4955 119.141 20.5685 118.999 20.5973Z" fill="#EA4C89" stroke="#EA4C89" stroke-width="0.4"/>
<path d="M120.344 32.0899L120.203 32.2332L120.347 32.3735L121 33.0096L121.142 33.1484L121.282 33.0067L131.471 22.6645L131.612 22.5212L131.468 22.3809L130.815 21.7448L130.673 21.606L130.533 21.7477L120.344 32.0899Z" fill="#EA4C89" stroke="#EA4C89" stroke-width="0.4"/>
<path d="M127.105 39.8043L126.965 39.9318L127.085 40.0788L127.626 40.7429L127.759 40.9057L127.915 40.7651L138.737 31.0183L138.873 30.8961L138.764 30.7498L138.213 30.0153L138.103 29.8678L137.947 29.9658L125.601 37.7224L125.417 37.8379L125.547 38.0117L126.098 38.7462L126.207 38.8924L126.363 38.7966L128.324 37.5882L128.815 38.2535L127.105 39.8043ZM132.326 35.0913L129.797 37.3849L129.44 36.9079L132.326 35.0913Z" fill="#EA4C89" stroke="#EA4C89" stroke-width="0.4"/>
<path d="M145.021 52.7039L145.094 52.8905L145.28 52.8173L147.986 51.7559C148.512 51.5618 148.835 51.181 149.02 50.7638L149.02 50.7638L149.021 50.7628C149.228 50.2903 149.192 49.8203 148.97 49.2438C148.875 48.9901 148.717 48.7155 148.534 48.5026C148.351 48.2904 148.173 48.1509 147.951 48.0346C147.765 47.9319 147.526 47.8443 147.284 47.8385C147.014 47.8223 146.763 47.8885 146.52 47.9777C145.861 48.2162 145.262 48.4496 144.751 48.7178L144.751 48.7177L144.743 48.722C144.271 48.9965 143.828 49.2821 143.416 49.5788C143.007 49.8497 142.661 50.1419 142.348 50.4429L141.772 50.9969L141.526 51.2324L141.453 51.3033L141.433 51.3226L141.427 51.3276L141.426 51.3289L141.426 51.3292L141.426 51.3293L141.426 51.3293L141.564 51.4735L141.426 51.3293C141.122 51.6214 140.828 51.8841 140.493 52.1665L140.493 52.1664L140.491 52.1685C140.062 52.5422 139.531 52.9168 138.938 53.2724L138.938 53.2723L138.933 53.2753C138.337 53.6557 137.619 53.9976 136.764 54.3296L136.757 54.3322L136.751 54.3354C136.585 54.4139 136.429 54.4289 136.278 54.3755C136.238 54.3611 136.182 54.3208 136.116 54.2399C136.053 54.1614 135.992 54.0592 135.938 53.9461C135.836 53.7311 135.826 53.5222 135.887 53.4025C135.959 53.2748 136.075 53.1611 136.261 53.0928L136.261 53.0928L136.265 53.0913L138.972 52.0292L139.158 51.9562L139.086 51.7702L138.749 50.9092L138.676 50.7226L138.49 50.7958L135.782 51.8579L135.782 51.8578L135.777 51.8599C135.252 52.0819 134.938 52.4258 134.75 52.8493L134.75 52.8503C134.543 53.3231 134.578 53.7934 134.801 54.3706C134.909 54.65 135.036 54.9196 135.226 55.1404L135.233 55.1491L135.242 55.1568L135.253 55.1675C135.423 55.3238 135.616 55.5017 135.806 55.6073L135.821 55.6153L135.836 55.6208L135.845 55.6238C136.05 55.6966 136.253 55.7685 136.512 55.7849C136.784 55.8021 137.036 55.7357 137.28 55.6461C137.31 55.6353 137.34 55.6246 137.369 55.6139C137.988 55.3903 138.589 55.1732 139.053 54.9039C139.562 54.6364 139.979 54.3368 140.384 54.0456L140.388 54.0427L140.388 54.043L140.396 54.0362C140.483 53.9663 140.571 53.8972 140.658 53.8284C140.942 53.6041 141.221 53.3831 141.463 53.1508C141.519 53.097 141.571 53.0459 141.621 52.9967C141.761 52.8581 141.887 52.7341 142.053 52.6024L142.063 52.5948L142.071 52.5861C142.436 52.2163 142.882 51.8067 143.32 51.4253C143.749 51.0516 144.28 50.677 144.873 50.3214L144.873 50.3215L144.879 50.3176C145.434 49.9574 146.151 49.6157 147.006 49.2835L147.013 49.2809L147.02 49.2777C147.216 49.1844 147.363 49.1916 147.492 49.2376C147.618 49.2822 147.742 49.4323 147.855 49.6627C147.887 49.7795 147.909 49.8932 147.913 49.9954C147.918 50.102 147.902 50.1831 147.873 50.2405C147.801 50.3682 147.684 50.4819 147.499 50.5502L147.499 50.5502L147.497 50.5511L144.799 51.5833L144.611 51.6553L144.685 51.8429L145.021 52.7039Z" fill="#EA4C89" stroke="#EA4C89" stroke-width="0.4"/>
<path d="M152.786 62.1518L152.743 61.9595L152.55 61.9993L145.237 63.509L144.995 62.3364L152.308 60.8267L152.507 60.7857L152.462 60.5875L152.267 59.7091L152.225 59.5167L152.032 59.5567L137.812 62.5019L137.613 62.543L137.657 62.7411L137.852 63.6194L137.895 63.8122L138.088 63.7718L143.693 62.6008L143.936 63.7734L138.33 64.9446L138.132 64.986L138.176 65.1838L138.371 66.0621L138.413 66.2545L138.606 66.2145L152.826 63.2694L153.025 63.2282L152.981 63.0301L152.786 62.1518Z" fill="#EA4C89" stroke="#EA4C89" stroke-width="0.4"/>
<path d="M154.236 73.8229L154.236 73.8229L154.235 73.8174C154.21 73.4863 154.149 73.2463 154.057 72.9982C153.981 72.7797 153.859 72.584 153.694 72.412C153.493 72.1809 153.302 72.1131 153.092 72.0385L153.086 72.0363C152.966 71.994 152.837 71.9809 152.714 71.9785C152.592 71.9761 152.465 71.9842 152.347 71.9917L152.345 71.9918L140.904 72.4487C140.883 72.4491 140.863 72.4493 140.843 72.4496C140.608 72.4528 140.377 72.4559 140.147 72.5652C139.973 72.6482 139.768 72.7717 139.616 72.9654L139.616 72.9653L139.611 72.9724C139.468 73.1727 139.365 73.3582 139.283 73.5886L139.278 73.602L139.275 73.616C139.228 73.851 139.202 74.1264 139.207 74.4118L139.207 74.4118L139.207 74.4181C139.223 74.729 139.279 74.9685 139.378 75.1757C139.476 75.3819 139.611 75.5431 139.765 75.7026C140.094 76.0437 140.516 76.2719 141.096 76.2494L141.096 76.2493L152.511 75.7816C152.511 75.7816 152.511 75.7816 152.512 75.7816C153.095 75.7589 153.499 75.478 153.8 75.1458C153.949 74.9811 154.071 74.8099 154.147 74.5932C154.224 74.3776 154.251 74.1315 154.236 73.8229ZM152.835 73.4282L152.856 73.4499L152.882 73.4644C152.968 73.5119 153.03 73.5939 153.062 73.8524C153.077 73.9657 153.064 74.0437 153.04 74.1035C153.015 74.1645 152.974 74.2207 152.91 74.2824C152.8 74.3875 152.659 74.4429 152.45 74.4565L141.067 74.9348L141.067 74.9347L141.062 74.935C140.851 74.9484 140.723 74.9182 140.6 74.8046C140.525 74.7353 140.48 74.675 140.452 74.6114C140.423 74.5474 140.406 74.4671 140.403 74.3497C140.401 74.2262 140.413 74.1477 140.433 74.0894C140.453 74.0347 140.485 73.9857 140.544 73.9287C140.644 73.8328 140.763 73.7994 140.993 73.7846L152.395 73.3469L152.395 73.347L152.4 73.3467C152.649 73.3309 152.758 73.3483 152.835 73.4282Z" fill="#EA4C89" stroke="#EA4C89" stroke-width="0.4"/>
<path d="M153.041 87.6396L153.041 87.6397L153.046 87.6348C153.39 87.3044 153.606 86.8927 153.683 86.2701C153.683 86.27 153.683 86.2699 153.683 86.2698L153.884 84.656L153.908 84.4572L153.71 84.4328L139.305 82.6602L139.108 82.636L139.083 82.8329L138.965 83.7352L138.939 83.935L139.139 83.9595L145.481 84.7381L145.421 85.2515C145.421 85.2517 145.42 85.2518 145.42 85.252C145.345 85.8709 145.443 86.3262 145.721 86.7312C146.006 87.1451 146.431 87.3644 146.981 87.4509L146.981 87.451L146.988 87.4518L151.645 88.0261C152.215 88.1147 152.7 87.9445 153.041 87.6396ZM152.523 86.0865L152.523 86.0865L152.522 86.0908C152.502 86.3035 152.411 86.4737 152.285 86.5714C152.145 86.6565 151.998 86.7056 151.793 86.6863L147.275 86.1258C147.054 86.0758 146.905 85.9883 146.827 85.893L146.822 85.8871L146.816 85.8815C146.728 85.79 146.68 85.6111 146.702 85.3747L146.762 84.8644L152.583 85.5723L152.523 86.0865Z" fill="#EA4C89" stroke="#EA4C89" stroke-width="0.4"/>
</g>
<defs>
<clipPath id="clip0">
<rect width="154" height="154" fill="white" transform="translate(154) rotate(90)"/>
</clipPath>
</defs>
</svg>
