<svg width="7" height="7" viewBox="0 0 7 7" fill="none" xmlns="http://www.w3.org/2000/svg">
<path d="M3.50148 3.73046L0.882683 1.11178C0.810748 1.03967 0.714569 1.00001 0.612016 1.00001C0.509406 1.00001 0.413284 1.03967 0.341236 1.11178L0.111886 1.34124C0.0397234 1.41323 -1.57488e-07 1.50947 -1.53005e-07 1.61202C-1.48522e-07 1.71458 0.0397234 1.8107 0.111886 1.88275L3.22979 5.00071C3.30207 5.07304 3.39864 5.11265 3.50131 5.11236C3.60443 5.11265 3.70089 5.0731 3.77323 5.00071L6.88811 1.88565C6.96028 1.8136 7 1.71748 7 1.61487C7 1.51232 6.96028 1.41619 6.88811 1.34409L6.65876 1.11468C6.50949 0.965405 6.26648 0.965405 6.11726 1.11468L3.50148 3.73046Z" fill="#A0A0A0"/>
</svg>
