<svg width="50" height="50" viewBox="0 0 50 50" fill="none" xmlns="http://www.w3.org/2000/svg">
<path d="M42.6889 36.6856C41.8768 35.7862 40.7226 35.2716 39.5107 35.2687C36.8759 31.2264 34.7302 27.7265 34.0138 26.2955C33.0356 24.3297 34.2791 20.6554 37.339 16.4664C37.4008 16.3804 37.4455 16.2832 37.4706 16.1803C39.5984 14.6597 40.853 12.1986 40.8334 9.58334C40.8334 9.42016 40.8285 9.25786 40.8195 9.09467C40.7563 7.81773 39.7408 6.79371 38.4644 6.72008C38.4231 6.71793 38.3754 6.71705 38.3333 6.7151V0.833296C38.3333 0.373045 37.9603 0 37.5 0C37.0398 0 36.6667 0.373045 36.6667 0.833296V6.67281C36.0415 6.66686 35.3534 6.66656 34.5834 6.66656C31.2656 6.55836 28.1645 8.3105 26.5451 11.2083H23.4551C21.8356 8.3105 18.7347 6.55836 15.4167 6.66656C14.6467 6.66656 13.9586 6.66686 13.3335 6.67281V0.833296C13.3335 0.373045 12.9604 0 12.5002 0C12.0399 0 11.6669 0.373045 11.6669 0.833296V6.7149C11.6252 6.71686 11.5776 6.71773 11.5367 6.71988C10.2593 6.79351 9.24314 7.81861 9.18074 9.09663C9.17176 9.25776 9.16717 9.41996 9.16687 9.58325C9.14725 12.1868 10.39 14.6387 12.5015 16.1621C12.5319 16.2652 12.5817 16.3616 12.6483 16.446C13.8275 18.0577 17.4391 23.3844 15.9873 26.2933C15.2706 27.7255 13.1269 31.2223 10.4897 35.2684C9.27664 35.2709 8.12118 35.7864 7.30897 36.6876C5.8043 38.2037 5.425 40.1031 6.42763 41.1061C6.81474 41.4794 7.33622 41.6804 7.87372 41.6635H7.87938C9.01512 41.5808 10.076 41.0663 10.844 40.2255C11.2291 39.846 11.5556 39.4112 11.8129 38.9355C12.3735 39.9396 12.5583 41.1105 12.3341 42.2384C12.1899 42.6753 12.427 43.1464 12.8639 43.2907C13.3008 43.4349 13.7719 43.1978 13.9162 42.7609C14.2604 41.4412 14.1391 40.043 13.5727 38.8023C17.6054 40.3791 20.3813 44.1231 20.7179 48.4401C20.7898 49.3335 21.5445 50.0168 22.4407 49.9996H27.5595C28.4537 50.0173 29.2078 49.3373 29.2824 48.4461C29.6172 44.1272 32.3932 40.3804 36.4275 38.8023C35.8611 40.043 35.7399 41.4412 36.0841 42.7609C36.1775 43.0435 36.4145 43.2548 36.7059 43.3153C36.9973 43.3757 37.2988 43.2761 37.4969 43.054C37.6949 42.8319 37.7595 42.5209 37.6661 42.2384C37.4419 41.1107 37.6267 39.9399 38.1871 38.9359C38.4428 39.4093 38.7674 39.8421 39.1505 40.2198C39.9194 41.0633 40.9825 41.5799 42.1209 41.6634H42.1265C42.6641 41.6804 43.1857 41.4792 43.5726 41.1056C44.5753 40.1031 44.1961 38.2037 42.6889 36.6856ZM9.66668 39.0464C9.20721 39.5727 8.56981 39.9112 7.87635 39.9968H7.87469C7.77977 40.0061 7.68466 39.9815 7.60614 39.9272C7.4369 39.7576 7.537 38.8237 8.48992 37.8638C8.91434 37.4063 9.4656 37.0857 10.0731 36.9431C10.0885 37.0133 10.1084 37.0822 10.1329 37.1497C10.2266 37.3599 10.3634 37.5482 10.5341 37.7025C10.3564 38.2134 10.059 38.6742 9.66668 39.0464ZM34.5835 8.33325C36.1533 8.33325 37.3936 8.33325 38.3791 8.38413C38.8055 8.41548 39.1401 8.76225 39.1562 9.1894C39.1636 9.31957 39.1668 9.45102 39.1668 9.58325C39.2739 12.917 36.6667 15.7105 33.3335 15.8332C30.9489 15.7818 28.833 14.2911 27.982 12.0629C29.0309 9.82006 31.6392 8.33325 34.5835 8.33325ZM28.0076 31.2672C26.0444 30.6885 23.9559 30.6885 21.9928 31.2672C24.4427 24.877 21.0582 18.2701 20.1026 16.6085C20.6987 16.2816 21.2483 15.876 21.7362 15.4025C23.5858 17.0879 26.4145 17.0879 28.2641 15.4025C28.7521 15.876 29.3016 16.2815 29.8978 16.6085C28.9422 18.27 25.5577 24.877 28.0076 31.2672ZM23.485 12.8751H26.5155C26.7042 13.3062 26.9306 13.7196 27.1922 14.1108C25.9711 15.2959 24.0293 15.2964 22.8075 14.1118C23.0694 13.7204 23.2961 13.3066 23.485 12.8751ZM10.8337 9.58325C10.8337 9.45102 10.8369 9.31958 10.8442 9.19135C10.8596 8.76323 11.1949 8.41528 11.6222 8.38403C12.6069 8.33315 13.8471 8.33315 15.4169 8.33315C18.3613 8.33315 20.9694 9.81996 22.0185 12.0628C21.1675 14.2911 19.0516 15.7818 16.6669 15.8331C13.3337 15.7105 10.7265 12.917 10.8337 9.58325ZM27.5596 48.333L22.3814 48.3362C22.2475 46.3712 21.6515 44.4657 20.6421 42.7744L23.1913 38.5234C23.5728 37.8881 24.2596 37.4995 25.0006 37.4997C25.7416 37.4999 26.4282 37.8887 26.8094 38.5243L29.3474 42.761C28.3266 44.4543 27.7146 46.3621 27.5596 48.333ZM38.2895 36.5106C38.1553 36.537 38.0259 36.5746 37.8933 36.6048C37.8677 36.6097 37.8439 36.6151 37.8191 36.6223C34.8946 37.296 32.2796 38.9289 30.3908 41.261L28.2383 37.6678C27.5564 36.5298 26.3272 35.8333 25.0006 35.8331C23.6739 35.8328 22.4445 36.5289 21.7621 37.6666L19.6019 41.269C17.7383 38.964 15.1609 37.3446 12.2756 36.6657C12.1857 36.6266 12.0895 36.6041 11.9916 36.5993C11.9313 36.5863 11.8726 36.5696 11.8122 36.5573C11.7699 36.5329 11.7255 36.5123 11.6795 36.4958C13.8799 33.1296 16.5531 28.8861 17.4783 27.0382C18.8944 24.2012 17.1118 20.2617 15.2841 17.3591C16.3636 17.5805 17.4803 17.54 18.5409 17.2412C19.174 18.311 23.4528 26.0103 19.5779 32.4361C19.5631 32.4699 19.5506 32.5048 19.5407 32.5404C19.5157 32.5924 19.4962 32.6468 19.4825 32.7027C19.4738 32.7555 19.4704 32.8089 19.4724 32.8622C19.4699 32.9141 19.4726 32.966 19.4803 33.0174C19.4932 33.0746 19.5122 33.1303 19.537 33.1834C19.5463 33.2186 19.558 33.253 19.5722 33.2865C19.5791 33.2984 19.5911 33.3048 19.5987 33.3163C19.668 33.4027 19.746 33.4819 19.8314 33.5526C19.8429 33.5604 19.849 33.5727 19.8611 33.5799C19.9281 33.62 20.0005 33.6506 20.0761 33.6707C20.0832 33.6726 20.0905 33.6719 20.0977 33.6736C20.1608 33.6898 20.2256 33.6985 20.2907 33.6996C20.3146 33.6996 20.3376 33.6927 20.3613 33.6906C20.3853 33.6887 20.4077 33.6857 20.4316 33.6817C20.5276 33.6668 20.6201 33.6351 20.7052 33.5881L20.7123 33.5856C23.3875 32.1376 26.6129 32.1376 29.2881 33.5856L29.297 33.5894C29.3422 33.6133 29.3895 33.633 29.4383 33.6482C29.4587 33.6553 29.478 33.6669 29.4986 33.6722C29.5505 33.6841 29.6036 33.691 29.6569 33.6929C29.674 33.6939 29.6911 33.6996 29.7082 33.6996L29.7087 33.6995L29.7096 33.6996C29.7218 33.6996 29.7337 33.6953 29.7458 33.6947C29.8057 33.6932 29.8654 33.6852 29.9237 33.6708C29.9451 33.665 29.9652 33.653 29.9863 33.6456C30.0353 33.6298 30.0829 33.6095 30.1281 33.5849L30.1396 33.5799C30.1484 33.5746 30.1528 33.5655 30.1614 33.56C30.2333 33.5124 30.2972 33.4537 30.3508 33.3862C30.3671 33.3663 30.3831 33.3479 30.3972 33.3268C30.4068 33.3124 30.4198 33.3017 30.4286 33.2866C30.4427 33.2531 30.4544 33.2187 30.4637 33.1835C30.4886 33.1304 30.5077 33.0747 30.5205 33.0175C30.5282 32.9661 30.5308 32.9142 30.5284 32.8623C30.5302 32.8089 30.5268 32.7555 30.5182 32.7028C30.5045 32.6468 30.4851 32.5924 30.46 32.5405C30.4501 32.5049 30.4377 32.4701 30.4228 32.4362C26.5585 26.0278 30.8264 18.3157 31.4602 17.2414C32.5216 17.5403 33.6393 17.5806 34.7195 17.3587C32.8995 20.2521 31.1099 24.1998 32.5224 27.0395C33.4499 28.8904 36.1334 33.1496 38.3035 36.5041L38.2895 36.5106ZM42.3943 39.9269C42.316 39.9815 42.2208 40.0063 42.1258 39.9969H42.1241C41.4281 39.9103 40.7886 39.5698 40.328 39.0407C39.938 38.67 39.6424 38.2112 39.4662 37.7028C39.637 37.5484 39.7736 37.3601 39.8674 37.1499C39.8928 37.0804 39.9134 37.0094 39.929 36.9371C40.5343 37.0847 41.0832 37.4062 41.508 37.862C42.4635 38.8238 42.5636 39.7577 42.3943 39.9269Z" fill="#EA4C89"/>
</svg>
