<svg width="148" height="30" viewBox="0 0 148 30" fill="none" xmlns="http://www.w3.org/2000/svg">
<path d="M1.85874 0.223048H0V30H5.87361V28.1413H1.85874V0.223048Z" fill="black"/>
<path d="M20.7293 30V0.223048H22.588V30H20.7293Z" fill="black"/>
<path d="M42.5953 19.0706L39.3239 0.223048H37.4651V30H39.3239V11.1524L42.5953 30H44.454V0.223048H42.5953V19.0706Z" fill="black"/>
<path d="M66.3087 11.7472V3.30855C66.3087 2.26766 65.8626 1.48699 65.2306 0.892193C64.5614 0.297398 64.0038 0 62.8142 0C62.2194 0 61.7362 0.111525 61.2529 0.260224C60.8068 0.408921 60.4722 0.631971 60.1377 0.892193C59.8031 1.18959 59.6172 1.52416 59.4685 1.93308C59.2826 2.30483 59.3198 2.7881 59.3198 3.30855V26.7286C59.3198 27.2491 59.2826 27.6952 59.4685 28.1041C59.6172 28.4758 59.8031 28.8104 60.1377 29.1078C60.4722 29.4052 60.8068 29.6283 61.2529 29.777C61.7362 29.9256 62.2194 30 62.8142 30C64.0038 30 64.5614 29.7026 65.2306 29.1078C65.8626 28.5502 66.3087 27.7695 66.3087 26.7286V15.8364H63.2232V17.7323H64.4128V26.6914C64.4128 27.1747 64.3012 27.5836 64.0038 27.9182C63.7064 28.2528 63.3347 28.4015 62.7771 28.4015C62.2194 28.4015 61.8849 28.2528 61.6246 27.9182C61.3272 27.5836 61.2529 27.1747 61.2529 26.6914V3.30855C61.2529 2.82528 61.3272 2.41636 61.6246 2.11896C61.8849 1.78439 62.2194 1.59851 62.7771 1.59851C63.3347 1.59851 63.7064 1.78439 64.0038 2.11896C64.3012 2.41636 64.4128 2.82528 64.4128 3.30855V11.7472H66.3087Z" fill="black"/>
<path d="M87.1224 2.11896V0.223048H81.1745V30H87.1224V28.1413H83.0332V16.5056H85.7098V14.6468H83.0332V2.11896H87.1224Z" fill="black"/>
<path d="M108.965 3.56877C108.965 2.52788 108.593 1.71004 107.961 1.15242C107.292 0.55762 106.512 0.260224 105.285 0.260224H101.976V30H103.835V16.5056H105.359C105.88 16.5427 106.326 16.6914 106.623 17.026C106.883 17.3234 107.069 17.7323 107.069 18.2156V30H108.965V17.9554C108.965 16.9145 108.593 16.0967 107.961 15.539C107.924 15.5019 107.887 15.4647 107.85 15.4275C107.887 15.3903 107.924 15.3532 107.961 15.316C108.593 14.7584 108.965 13.9405 108.965 12.8996V3.56877ZM105.285 1.82156C105.805 1.85874 106.326 2.00744 106.623 2.34201C106.883 2.6394 107.069 3.04833 107.069 3.56877V12.8996C107.069 13.4201 106.883 13.829 106.623 14.1264C106.326 14.461 105.805 14.6097 105.285 14.6468H103.835V1.82156H105.285Z" fill="black"/>
<path d="M123.831 30V0.223048H125.69V30H123.831Z" fill="black"/>
<path d="M147.63 30L145.028 0.223048H143.169L140.567 30H142.426L142.872 24.9071H145.325L145.771 30H147.63ZM144.098 10.9665L145.177 23.0483H143.058L144.098 10.9665Z" fill="black"/>
</svg>
